Achieve-Bold.ufo
<glyph name="exclam" format="2">
	<advance width="300"/>
	<unicode hex="0021"/>
	<outline>
		<contour>
			<point x="91" y="278" type="line"/>
			<point x="211" y="278" type="line"/>
			<point x="231" y="800" type="line"/>
			<point x="71" y="800" type="line"/>
		</contour>
		<contour>
			<point x="150" y="182" type="curve" smooth="yes"/>
			<point x="95" y="182"/>
			<point x="50" y="137"/>
			<point x="50" y="82" type="curve" smooth="yes"/>
			<point x="50" y="27"/>
			<point x="95" y="-18"/>
			<point x="150" y="-18" type="curve" smooth="yes"/>
			<point x="206" y="-18"/>
			<point x="250" y="27"/>
			<point x="250" y="82" type="curve" smooth="yes"/>
			<point x="250" y="137"/>
			<point x="206" y="182"/>
		</contour>
	</outline>
</glyph>
<glyph name="quotedbl" format="2">
	<advance width="420"/>
	<unicode hex="0022"/>
	<outline>
		<contour>
			<point x="266" y="445" type="line"/>
			<point x="334" y="445" type="line"/>
			<point x="360" y="624" type="line"/>
			<point x="360" y="744" type="line"/>
			<point x="240" y="744" type="line"/>
			<point x="240" y="624" type="line"/>
		</contour>
		<contour>
			<point x="86" y="445" type="line"/>
			<point x="154" y="445" type="line"/>
			<point x="180" y="624" type="line"/>
			<point x="180" y="744" type="line"/>
			<point x="60" y="744" type="line"/>
			<point x="60" y="624" type="line"/>
		</contour>
	</outline>
</glyph>
<glyph name="asterisk" format="2">
	<advance width="493"/>
	<unicode hex="002A"/>
	<outline>
		<contour>
			<point x="225" y="546" type="line"/>
			<point x="363" y="446" type="line"/>
			<point x="413" y="515" type="line"/>
			<point x="275" y="615" type="line"/>
		</contour>
		<contour>
			<point x="157" y="729" type="line"/>
			<point x="210" y="567" type="line"/>
			<point x="290" y="594" type="line"/>
			<point x="238" y="755" type="line"/>
		</contour>
		<contour>
			<point x="80" y="623" type="line"/>
			<point x="80" y="538" type="line"/>
			<point x="250" y="538" type="line"/>
			<point x="250" y="623" type="line"/>
		</contour>
		<contour>
			<point x="225" y="615" type="line"/>
			<point x="275" y="546" type="line"/>
			<point x="413" y="646" type="line"/>
			<point x="363" y="715" type="line"/>
		</contour>
		<contour>
			<point x="157" y="432" type="line"/>
			<point x="238" y="406" type="line"/>
			<point x="290" y="567" type="line"/>
			<point x="210" y="594" type="line"/>
		</contour>
	</outline>
</glyph>
<glyph name="plus" format="2">
	<advance width="700"/>
	<unicode hex="002B"/>
	<outline>
		<contour>
			<point x="290" y="560" type="line"/>
			<point x="290" y="140" type="line"/>
			<point x="410" y="140" type="line"/>
			<point x="410" y="560" type="line"/>
		</contour>
		<contour>
			<point x="560" y="410" type="line"/>
			<point x="140" y="410" type="line"/>
			<point x="140" y="290" type="line"/>
			<point x="560" y="290" type="line"/>
		</contour>
	</outline>
</glyph>
<glyph name="hyphen" format="2">
	<advance width="540"/>
	<unicode hex="002D"/>
	<outline>
		<contour>
			<point x="440" y="350" type="line"/>
			<point x="100" y="350" type="line"/>
			<point x="100" y="230" type="line"/>
			<point x="440" y="230" type="line"/>
		</contour>
	</outline>
</glyph>
<glyph name="slash" format="2">
	<advance width="521"/>
	<unicode hex="002F"/>
	<outline>
		<contour>
			<point x="195" y="-94" type="line"/>
			<point x="441" y="826" type="line"/>
			<point x="326" y="857" type="line"/>
			<point x="80" y="-63" type="line"/>
		</contour>
	</outline>
</glyph>
<glyph name="two" format="2">
	<advance width="744"/>
	<unicode hex="0032"/>
	<outline>
		<contour>
			<point x="220" y="0" type="curve" smooth="yes"/>
			<point x="661" y="0" type="line"/>
			<point x="661" y="160" type="line"/>
			<point x="243" y="160" type="line"/>
			<point x="243" y="157"/>
			<point x="243" y="153"/>
			<point x="243" y="150" type="curve" smooth="yes"/>
			<point x="243" y="146"/>
			<point x="245" y="143"/>
			<point x="247" y="142" type="curve"/>
			<point x="507" y="257" type="line" smooth="yes"/>
			<point x="596" y="296"/>
			<point x="664" y="365"/>
			<point x="664" y="467" type="curve" smooth="yes"/>
			<point x="664" y="596"/>
			<point x="560" y="700"/>
			<point x="431" y="700" type="curve" smooth="yes"/>
			<point x="120" y="700" type="line"/>
			<point x="120" y="540" type="line"/>
			<point x="431" y="540" type="line" smooth="yes"/>
			<point x="472" y="540"/>
			<point x="501" y="508"/>
			<point x="501" y="476" type="curve" smooth="yes"/>
			<point x="501" y="445"/>
			<point x="489" y="425"/>
			<point x="443" y="403" type="curve" smooth="yes"/>
			<point x="159" y="267" type="line" smooth="yes"/>
			<point x="98" y="238"/>
			<point x="80" y="187"/>
			<point x="80" y="142" type="curve" smooth="yes"/>
			<point x="80" y="71"/>
			<point x="133" y="0"/>
		</contour>
	</outline>
</glyph>
<glyph name="three" format="2">
	<advance width="675"/>
	<unicode hex="0033"/>
	<outline>
		<contour>
			<point x="80" y="0" type="line"/>
			<point x="380" y="0" type="line" smooth="yes"/>
			<point x="498" y="0"/>
			<point x="595" y="97"/>
			<point x="595" y="215" type="curve" smooth="yes"/>
			<point x="595" y="280"/>
			<point x="566" y="338"/>
			<point x="521" y="376" type="curve"/>
			<point x="522" y="333" type="line"/>
			<point x="563" y="374"/>
			<point x="585" y="428"/>
			<point x="585" y="485" type="curve" smooth="yes"/>
			<point x="585" y="603"/>
			<point x="488" y="700"/>
			<point x="370" y="700" type="curve" smooth="yes"/>
			<point x="80" y="700" type="line"/>
			<point x="80" y="540" type="line"/>
			<point x="370" y="540" type="line" smooth="yes"/>
			<point x="401" y="540"/>
			<point x="425" y="516"/>
			<point x="425" y="485" type="curve" smooth="yes"/>
			<point x="425" y="454"/>
			<point x="401" y="430"/>
			<point x="370" y="430" type="curve" smooth="yes"/>
			<point x="140" y="430" type="line"/>
			<point x="140" y="270" type="line"/>
			<point x="380" y="270" type="line" smooth="yes"/>
			<point x="411" y="270"/>
			<point x="435" y="246"/>
			<point x="435" y="215" type="curve" smooth="yes"/>
			<point x="435" y="184"/>
			<point x="411" y="160"/>
			<point x="380" y="160" type="curve" smooth="yes"/>
			<point x="80" y="160" type="line"/>
		</contour>
	</outline>
</glyph>
<glyph name="equal" format="2">
	<advance width="700"/>
	<unicode hex="003D"/>
	<outline>
		<contour>
			<point x="560" y="500" type="line"/>
			<point x="140" y="500" type="line"/>
			<point x="140" y="380" type="line"/>
			<point x="560" y="380" type="line"/>
		</contour>
		<contour>
			<point x="560" y="320" type="line"/>
			<point x="140" y="320" type="line"/>
			<point x="140" y="200" type="line"/>
			<point x="560" y="200" type="line"/>
		</contour>
	</outline>
</glyph>
<glyph name="at" format="2">
	<advance width="1200"/>
	<unicode hex="0040"/>
	<guideline x="613" y="80" angle="0"/>
	<outline>
		<contour>
			<point x="913" y="80" type="line"/>
			<point x="784" y="479" type="line" smooth="yes"/>
			<point x="758" y="558"/>
			<point x="684" y="611"/>
			<point x="601" y="611" type="curve" smooth="yes"/>
			<point x="517" y="611"/>
			<point x="444" y="558"/>
			<point x="418" y="479" type="curve" smooth="yes"/>
			<point x="295" y="99" type="line"/>
			<point x="447" y="50" type="line"/>
			<point x="570" y="428" type="line" smooth="yes"/>
			<point x="575" y="444"/>
			<point x="588" y="451"/>
			<point x="601" y="451" type="curve" smooth="yes"/>
			<point x="614" y="451"/>
			<point x="627" y="444"/>
			<point x="632" y="428" type="curve" smooth="yes"/>
			<point x="745" y="80" type="line"/>
		</contour>
		<contour>
			<point x="922" y="80" type="line" smooth="yes"/>
			<point x="1058" y="80"/>
			<point x="1132" y="154"/>
			<point x="1132" y="290" type="curve" smooth="yes"/>
			<point x="1132" y="584"/>
			<point x="894" y="822"/>
			<point x="600" y="822" type="curve" smooth="yes"/>
			<point x="306" y="822"/>
			<point x="68" y="584"/>
			<point x="68" y="290" type="curve" smooth="yes"/>
			<point x="68" y="-4"/>
			<point x="306" y="-242"/>
			<point x="600" y="-242" type="curve" smooth="yes"/>
			<point x="747" y="-242"/>
			<point x="880" y="-182"/>
			<point x="976" y="-86" type="curve"/>
			<point x="886" y="3" type="line"/>
			<point x="810" y="-74"/>
			<point x="709" y="-116"/>
			<point x="600" y="-116" type="curve" smooth="yes"/>
			<point x="375" y="-116"/>
			<point x="194" y="66"/>
			<point x="194" y="290" type="curve" smooth="yes"/>
			<point x="194" y="515"/>
			<point x="375" y="696"/>
			<point x="600" y="696" type="curve" smooth="yes"/>
			<point x="825" y="696"/>
			<point x="1006" y="515"/>
			<point x="1006" y="290" type="curve" smooth="yes"/>
			<point x="1006" y="241"/>
			<point x="969" y="206"/>
			<point x="920" y="206" type="curve" smooth="yes"/>
			<point x="826" y="206" type="line"/>
			<point x="826" y="80" type="line"/>
		</contour>
	</outline>
</glyph>
<glyph name="A" format="2">
	<advance width="800"/>
	<unicode hex="0041"/>
	<anchor x="401" y="-167" name="below"/>
	<anchor x="401" y="869" name="accent"/>
	<anchor x="400" y="1079" name="above"/>
	<anchor x="675" y="8" name="bottom"/>
	<outline>
		<contour>
			<point x="26" y="0" type="line"/>
			<point x="195" y="0" type="line"/>
			<point x="372" y="546" type="line" smooth="yes"/>
			<point x="376" y="557"/>
			<point x="388" y="565"/>
			<point x="401" y="565" type="curve" smooth="yes"/>
			<point x="414" y="565"/>
			<point x="425" y="558"/>
			<point x="429" y="546" type="curve" smooth="yes"/>
			<point x="607" y="0" type="line"/>
			<point x="774" y="0" type="line"/>
			<point x="581" y="598" type="line" smooth="yes"/>
			<point x="554" y="674"/>
			<point x="482" y="725"/>
			<point x="401" y="725" type="curve" smooth="yes"/>
			<point x="320" y="725"/>
			<point x="245" y="675"/>
			<point x="220" y="598" type="curve" smooth="yes"/>
		</contour>
		<contour>
			<point x="216" y="120" type="line"/>
			<point x="585" y="120" type="line"/>
			<point x="585" y="280" type="line"/>
			<point x="216" y="280" type="line"/>
		</contour>
	</outline>
</glyph>
<glyph name="C" format="2">
	<advance width="840"/>
	<unicode hex="0043"/>
	<anchor x="435" y="-16" name="bottom"/>
	<anchor x="435" y="869" name="accent"/>
	<outline>
		<contour>
			<point x="435" y="-25" type="curve" smooth="yes"/>
			<point x="574" y="-25"/>
			<point x="695" y="50"/>
			<point x="760" y="162" type="curve"/>
			<point x="622" y="242" type="line"/>
			<point x="585" y="183"/>
			<point x="525" y="135"/>
			<point x="435" y="135" type="curve" smooth="yes"/>
			<point x="315" y="135"/>
			<point x="220" y="230"/>
			<point x="220" y="350" type="curve" smooth="yes"/>
			<point x="220" y="470"/>
			<point x="315" y="565"/>
			<point x="435" y="565" type="curve" smooth="yes"/>
			<point x="525" y="565"/>
			<point x="585" y="517"/>
			<point x="622" y="458" type="curve"/>
			<point x="760" y="538" type="line"/>
			<point x="695" y="650"/>
			<point x="574" y="725"/>
			<point x="435" y="725" type="curve" smooth="yes"/>
			<point x="228" y="725"/>
			<point x="60" y="557"/>
			<point x="60" y="350" type="curve" smooth="yes"/>
			<point x="60" y="143"/>
			<point x="228" y="-25"/>
		</contour>
	</outline>
</glyph>
<glyph name="D" format="2">
	<advance width="830"/>
	<unicode hex="0044"/>
	<anchor x="160" y="350" name="bar"/>
	<anchor x="395" y="869" name="accent"/>
	<anchor x="160" y="350" name="stroke"/>
	<outline>
		<contour>
			<point x="240" y="-10" type="curve" smooth="yes"/>
			<point x="410" y="-10" type="line" smooth="yes"/>
			<point x="609" y="-10"/>
			<point x="770" y="151"/>
			<point x="770" y="350" type="curve" smooth="yes"/>
			<point x="770" y="549"/>
			<point x="609" y="710"/>
			<point x="410" y="710" type="curve" smooth="yes"/>
			<point x="240" y="710" type="line" smooth="yes"/>
			<point x="136" y="710"/>
			<point x="80" y="654"/>
			<point x="80" y="550" type="curve" smooth="yes"/>
			<point x="80" y="150" type="line" smooth="yes"/>
			<point x="80" y="46"/>
			<point x="136" y="-10"/>
		</contour>
		<contour>
			<point x="240" y="150" type="line"/>
			<point x="240" y="550" type="line"/>
			<point x="410" y="550" type="line" smooth="yes"/>
			<point x="520" y="550"/>
			<point x="610" y="460"/>
			<point x="610" y="350" type="curve" smooth="yes"/>
			<point x="610" y="240"/>
			<point x="520" y="150"/>
			<point x="410" y="150" type="curve" smooth="yes"/>
		</contour>
	</outline>
</glyph>
<glyph name="F" format="2">
	<advance width="700"/>
	<unicode hex="0046"/>
	<outline>
		<contour>
			<point x="63" y="0" type="line"/>
			<point x="223" y="0" type="line"/>
			<point x="223" y="540" type="line"/>
			<point x="638" y="540" type="line"/>
			<point x="638" y="700" type="line"/>
			<point x="223" y="700" type="line" smooth="yes"/>
			<point x="119" y="700"/>
			<point x="63" y="644"/>
			<point x="63" y="540" type="curve" smooth="yes"/>
		</contour>
		<contour>
			<point x="143" y="270" type="line"/>
			<point x="476" y="270" type="line"/>
			<point x="476" y="430" type="line"/>
			<point x="143" y="430" type="line"/>
		</contour>
	</outline>
</glyph>
<glyph name="G" format="2">
	<advance width="820"/>
	<unicode hex="0047"/>
	<guideline x="435" y="350" angle="0"/>
	<guideline x="435" y="350" angle="90"/>
	<guideline x="435" y="350" angle="45"/>
	<anchor x="435" y="869" name="accent"/>
	<outline>
		<contour>
			<point x="435" y="-25" type="curve" smooth="yes"/>
			<point x="550" y="-25"/>
			<point x="655" y="27"/>
			<point x="722" y="110" type="curve" smooth="yes"/>
			<point x="747" y="141"/>
			<point x="754" y="169"/>
			<point x="754" y="208" type="curve" smooth="yes"/>
			<point x="754" y="350" type="line" smooth="yes"/>
			<point x="754" y="402"/>
			<point x="726" y="430"/>
			<point x="674" y="430" type="curve" smooth="yes"/>
			<point x="437" y="430" type="line"/>
			<point x="437" y="270" type="line"/>
			<point x="594" y="270" type="line"/>
			<point x="594" y="206" type="line"/>
			<point x="554" y="163"/>
			<point x="497" y="135"/>
			<point x="435" y="135" type="curve" smooth="yes"/>
			<point x="318" y="135"/>
			<point x="220" y="233"/>
			<point x="220" y="350" type="curve" smooth="yes"/>
			<point x="220" y="467"/>
			<point x="318" y="565"/>
			<point x="435" y="565" type="curve" smooth="yes"/>
			<point x="497" y="565"/>
			<point x="545" y="543"/>
			<point x="586" y="502" type="curve"/>
			<point x="700" y="614" type="line"/>
			<point x="633" y="683"/>
			<point x="539" y="725"/>
			<point x="435" y="725" type="curve" smooth="yes"/>
			<point x="230" y="725"/>
			<point x="60" y="555"/>
			<point x="60" y="350" type="curve" smooth="yes"/>
			<point x="60" y="145"/>
			<point x="230" y="-25"/>
		</contour>
	</outline>
</glyph>
<glyph name="M" format="2">
	<advance width="1100"/>
	<unicode hex="004D"/>
	<outline>
		<contour>
			<point x="550" y="-25" type="curve" smooth="yes"/>
			<point x="635" y="-25"/>
			<point x="719" y="29"/>
			<point x="734" y="136" type="curve" smooth="yes"/>
			<point x="788" y="543" type="line" smooth="yes"/>
			<point x="790" y="559"/>
			<point x="801" y="566"/>
			<point x="813" y="566" type="curve" smooth="yes"/>
			<point x="824" y="566"/>
			<point x="835" y="559"/>
			<point x="837" y="543" type="curve" smooth="yes"/>
			<point x="908" y="0" type="line"/>
			<point x="1070" y="0" type="line"/>
			<point x="996" y="564" type="line" smooth="yes"/>
			<point x="982" y="671"/>
			<point x="897" y="725"/>
			<point x="813" y="725" type="curve" smooth="yes"/>
			<point x="728" y="725"/>
			<point x="643" y="671"/>
			<point x="629" y="564" type="curve" smooth="yes"/>
			<point x="575" y="157" type="line" smooth="yes"/>
			<point x="573" y="142"/>
			<point x="562" y="134"/>
			<point x="551" y="134" type="curve" smooth="yes"/>
			<point x="539" y="134"/>
			<point x="528" y="142"/>
			<point x="526" y="157" type="curve" smooth="yes"/>
			<point x="471" y="565" type="line" smooth="yes"/>
			<point x="457" y="671"/>
			<point x="373" y="725"/>
			<point x="288" y="725" type="curve" smooth="yes"/>
			<point x="203" y="725"/>
			<point x="119" y="671"/>
			<point x="104" y="564" type="curve" smooth="yes"/>
			<point x="30" y="0" type="line"/>
			<point x="192" y="0" type="line"/>
			<point x="263" y="543" type="line" smooth="yes"/>
			<point x="265" y="559"/>
			<point x="276" y="566"/>
			<point x="288" y="566" type="curve" smooth="yes"/>
			<point x="299" y="566"/>
			<point x="310" y="559"/>
			<point x="312" y="543" type="curve" smooth="yes"/>
			<point x="367" y="135" type="line" smooth="yes"/>
			<point x="381" y="29"/>
			<point x="465" y="-25"/>
		</contour>
	</outline>
</glyph>
<glyph name="N" format="2">
	<advance width="900"/>
	<unicode hex="004E"/>
	<guideline x="271" y="726" angle="0"/>
	<anchor x="451" y="869" name="accent"/>
	<outline>
		<contour>
			<point x="617" y="-25" type="curve"/>
			<point x="721" y="-25"/>
			<point x="807" y="61"/>
			<point x="807" y="166" type="curve"/>
			<point x="807" y="701" type="line"/>
			<point x="647" y="701" type="line"/>
			<point x="647" y="166" type="line"/>
			<point x="647" y="149"/>
			<point x="633" y="135"/>
			<point x="617" y="135" type="curve"/>
			<point x="604" y="135"/>
			<point x="593" y="143"/>
			<point x="589" y="154" type="curve"/>
			<point x="465" y="596" type="line"/>
			<point x="440" y="671"/>
			<point x="369" y="726"/>
			<point x="285" y="726" type="curve"/>
			<point x="180" y="726"/>
			<point x="94" y="640"/>
			<point x="94" y="535" type="curve"/>
			<point x="94" y="0" type="line"/>
			<point x="254" y="0" type="line"/>
			<point x="254" y="535" type="line"/>
			<point x="254" y="552"/>
			<point x="268" y="566"/>
			<point x="285" y="566" type="curve"/>
			<point x="297" y="566"/>
			<point x="308" y="558"/>
			<point x="313" y="547" type="curve"/>
			<point x="436" y="105" type="line"/>
			<point x="461" y="30"/>
			<point x="533" y="-25"/>
		</contour>
	</outline>
</glyph>
<glyph name="O" format="2">
	<advance width="900"/>
	<unicode hex="004F"/>
	<anchor x="450" y="-167" name="below"/>
	<anchor x="450" y="869" name="accent"/>
	<anchor x="451" y="1079" name="above"/>
	<anchor x="450" y="350" name="slash"/>
	<anchor x="432" y="-18" name="bottom"/>
	<outline>
		<contour>
			<point x="450" y="-25" type="curve" smooth="yes"/>
			<point x="656" y="-25"/>
			<point x="822" y="143"/>
			<point x="822" y="350" type="curve" smooth="yes"/>
			<point x="822" y="557"/>
			<point x="656" y="725"/>
			<point x="450" y="725" type="curve" smooth="yes"/>
			<point x="245" y="725"/>
			<point x="79" y="557"/>
			<point x="79" y="350" type="curve" smooth="yes"/>
			<point x="79" y="143"/>
			<point x="245" y="-25"/>
		</contour>
		<contour>
			<point x="450" y="135" type="curve" smooth="yes"/>
			<point x="333" y="135"/>
			<point x="237" y="231"/>
			<point x="237" y="350" type="curve" smooth="yes"/>
			<point x="237" y="469"/>
			<point x="333" y="565"/>
			<point x="450" y="565" type="curve" smooth="yes"/>
			<point x="568" y="565"/>
			<point x="664" y="469"/>
			<point x="664" y="350" type="curve" smooth="yes"/>
			<point x="664" y="231"/>
			<point x="568" y="135"/>
		</contour>
	</outline>
</glyph>
<glyph name="P" format="2">
	<advance width="800"/>
	<unicode hex="0050"/>
	<outline>
		<contour>
			<point x="81" y="0" type="line"/>
			<point x="241" y="0" type="line"/>
			<point x="241" y="540" type="line"/>
			<point x="463" y="540" type="line"/>
			<point x="515" y="540"/>
			<point x="558" y="497"/>
			<point x="558" y="445" type="curve" smooth="yes"/>
			<point x="558" y="393"/>
			<point x="515" y="350"/>
			<point x="463" y="350" type="curve"/>
			<point x="165" y="350" type="line"/>
			<point x="165" y="190" type="line"/>
			<point x="464" y="190" type="line"/>
			<point x="605" y="190"/>
			<point x="719" y="304"/>
			<point x="719" y="445" type="curve" smooth="yes"/>
			<point x="719" y="586"/>
			<point x="604" y="700"/>
			<point x="463" y="700" type="curve"/>
			<point x="241" y="700" type="line" smooth="yes"/>
			<point x="137" y="700"/>
			<point x="81" y="644"/>
			<point x="81" y="540" type="curve" smooth="yes"/>
		</contour>
	</outline>
</glyph>
<glyph name="R" format="2">
	<advance width="813"/>
	<unicode hex="0052"/>
	<anchor x="389" y="869" name="accent"/>
	<outline>
		<contour>
			<point x="80" y="0" type="line"/>
			<point x="240" y="0" type="line"/>
			<point x="240" y="540" type="line"/>
			<point x="502" y="540" type="line" smooth="yes"/>
			<point x="533" y="540"/>
			<point x="558" y="515"/>
			<point x="558" y="485" type="curve" smooth="yes"/>
			<point x="558" y="454"/>
			<point x="534" y="430"/>
			<point x="503" y="430" type="curve" smooth="yes"/>
			<point x="483" y="430" type="line" smooth="yes"/>
			<point x="367" y="430"/>
			<point x="295" y="350"/>
			<point x="295" y="260" type="curve" smooth="yes"/>
			<point x="295" y="212"/>
			<point x="316" y="160"/>
			<point x="364" y="117" type="curve" smooth="yes"/>
			<point x="494" y="0" type="line"/>
			<point x="733" y="0" type="line"/>
			<point x="471" y="236" type="line"/>
			<point x="467" y="240"/>
			<point x="465" y="245"/>
			<point x="465" y="251" type="curve" smooth="yes"/>
			<point x="465" y="262"/>
			<point x="473" y="270"/>
			<point x="485" y="270" type="curve" smooth="yes"/>
			<point x="503" y="270" type="line"/>
			<point x="622" y="270"/>
			<point x="718" y="366"/>
			<point x="718" y="485" type="curve" smooth="yes"/>
			<point x="718" y="604"/>
			<point x="620" y="700"/>
			<point x="502" y="700" type="curve" smooth="yes"/>
			<point x="240" y="700" type="line" smooth="yes"/>
			<point x="151" y="700"/>
			<point x="80" y="629"/>
			<point x="80" y="541" type="curve" smooth="yes"/>
		</contour>
	</outline>
</glyph>
<glyph name="Y" format="2">
	<advance width="764"/>
	<unicode hex="0059"/>
	<anchor x="383" y="1049" name="above"/>
	<anchor x="383" y="869" name="accent"/>
	<outline>
		<contour>
			<point x="82" y="0" type="line"/>
			<point x="392" y="0" type="line" smooth="yes"/>
			<point x="553" y="0"/>
			<point x="684" y="131"/>
			<point x="684" y="292" type="curve" smooth="yes"/>
			<point x="684" y="700" type="line"/>
			<point x="524" y="700" type="line"/>
			<point x="524" y="292" type="line" smooth="yes"/>
			<point x="524" y="219"/>
			<point x="465" y="160"/>
			<point x="392" y="160" type="curve" smooth="yes"/>
			<point x="82" y="160" type="line"/>
		</contour>
		<contour>
			<point x="560" y="212" type="line"/>
			<point x="610" y="364" type="line"/>
			<point x="349" y="449" type="line" smooth="yes"/>
			<point x="272" y="474"/>
			<point x="240" y="518"/>
			<point x="240" y="600" type="curve" smooth="yes"/>
			<point x="240" y="700" type="line"/>
			<point x="80" y="700" type="line"/>
			<point x="80" y="600" type="line" smooth="yes"/>
			<point x="80" y="448"/>
			<point x="156" y="343"/>
			<point x="299" y="297" type="curve" smooth="yes"/>
		</contour>
	</outline>
</glyph>
<glyph name="underscore" format="2">
	<advance width="780"/>
	<unicode hex="005F"/>
	<outline>
		<contour>
			<point x="680" y="120" type="line"/>
			<point x="100" y="120" type="line"/>
			<point x="100" y="0" type="line"/>
			<point x="680" y="0" type="line"/>
		</contour>
	</outline>
</glyph>
<glyph name="c" format="2">
	<advance width="718"/>
	<unicode hex="0063"/>
	<anchor x="370" y="0" name="bottom"/>
	<anchor x="370" y="759" name="accent"/>
	<outline>
		<contour>
			<point x="370" y="-9" type="curve" smooth="yes"/>
			<point x="484" y="-9"/>
			<point x="582" y="48"/>
			<point x="638" y="145" type="curve"/>
			<point x="517" y="213" type="line"/>
			<point x="488" y="165"/>
			<point x="434" y="134"/>
			<point x="374" y="134" type="curve" smooth="yes"/>
			<point x="282" y="134"/>
			<point x="209" y="212"/>
			<point x="209" y="304" type="curve" smooth="yes"/>
			<point x="209" y="395"/>
			<point x="282" y="468"/>
			<point x="374" y="468" type="curve" smooth="yes"/>
			<point x="434" y="468"/>
			<point x="488" y="438"/>
			<point x="521" y="385" type="curve"/>
			<point x="638" y="456" type="line"/>
			<point x="585" y="549"/>
			<point x="484" y="610"/>
			<point x="370" y="610" type="curve" smooth="yes"/>
			<point x="199" y="610"/>
			<point x="60" y="472"/>
			<point x="60" y="301" type="curve" smooth="yes"/>
			<point x="60" y="130"/>
			<point x="199" y="-9"/>
		</contour>
	</outline>
</glyph>
<glyph name="d" format="2">
	<advance width="714"/>
	<unicode hex="0064"/>
	<guideline x="370" y="471" angle="90"/>
	<guideline x="200" y="301" angle="0"/>
	<anchor x="725" y="700" name="accentside"/>
	<anchor x="550" y="701" name="bar"/>
	<outline>
		<contour>
			<point x="370" y="-9" type="curve" smooth="yes"/>
			<point x="465" y="-9"/>
			<point x="550" y="36"/>
			<point x="608" y="103" type="curve" smooth="yes"/>
			<point x="629" y="127"/>
			<point x="634" y="152"/>
			<point x="634" y="184" type="curve" smooth="yes"/>
			<point x="634" y="800" type="line"/>
			<point x="474" y="800" type="line"/>
			<point x="474" y="197" type="line" smooth="yes"/>
			<point x="474" y="195"/>
			<point x="473" y="192"/>
			<point x="468" y="187" type="curve" smooth="yes"/>
			<point x="449" y="168"/>
			<point x="412" y="151"/>
			<point x="370" y="151" type="curve" smooth="yes"/>
			<point x="289" y="151"/>
			<point x="220" y="220"/>
			<point x="220" y="301" type="curve" smooth="yes"/>
			<point x="220" y="382"/>
			<point x="289" y="451"/>
			<point x="370" y="451" type="curve" smooth="yes"/>
			<point x="418" y="451"/>
			<point x="462" y="428"/>
			<point x="492" y="386" type="curve"/>
			<point x="622" y="480" type="line"/>
			<point x="565" y="559"/>
			<point x="474" y="611"/>
			<point x="370" y="611" type="curve" smooth="yes"/>
			<point x="200" y="611"/>
			<point x="60" y="470"/>
			<point x="60" y="301" type="curve" smooth="yes"/>
			<point x="60" y="132"/>
			<point x="200" y="-9"/>
		</contour>
	</outline>
</glyph>
<glyph name="e" format="2">
	<advance width="739"/>
	<unicode hex="0065"/>
	<guideline y="301"/>
	<guideline x="370" y="720" angle="90"/>
	<anchor x="370" y="-167" name="below"/>
	<anchor x="370" y="759" name="accent"/>
	<anchor x="370" y="969" name="above"/>
	<anchor x="346" y="-1" name="bottom"/>
	<outline>
		<contour>
			<point x="370" y="-9" type="curve" smooth="yes"/>
			<point x="481" y="-9"/>
			<point x="582" y="51"/>
			<point x="639" y="147" type="curve"/>
			<point x="480" y="189" type="line"/>
			<point x="451" y="162"/>
			<point x="409" y="144"/>
			<point x="368" y="144" type="curve" smooth="yes"/>
			<point x="285" y="144"/>
			<point x="213" y="221"/>
			<point x="213" y="301" type="curve" smooth="yes"/>
			<point x="213" y="383"/>
			<point x="287" y="457"/>
			<point x="370" y="457" type="curve" smooth="yes"/>
			<point x="453" y="457"/>
			<point x="526" y="383"/>
			<point x="526" y="300" type="curve"/>
			<point x="526" y="349"/>
			<point x="559" y="350"/>
			<point x="609" y="350" type="curve"/>
			<point x="172" y="352" type="line"/>
			<point x="172" y="232" type="line"/>
			<point x="609" y="230" type="line" smooth="yes"/>
			<point x="648" y="230"/>
			<point x="679" y="261"/>
			<point x="679" y="300" type="curve" smooth="yes"/>
			<point x="679" y="471"/>
			<point x="541" y="610"/>
			<point x="370" y="610" type="curve" smooth="yes"/>
			<point x="199" y="610"/>
			<point x="60" y="472"/>
			<point x="60" y="301" type="curve" smooth="yes"/>
			<point x="60" y="130"/>
			<point x="199" y="-9"/>
		</contour>
	</outline>
</glyph>
<glyph name="f" format="2">
	<advance width="602"/>
	<unicode hex="0066"/>
	<outline>
		<contour>
			<point x="80" y="0" type="line"/>
			<point x="240" y="0" type="line"/>
			<point x="240" y="569" type="line" smooth="yes"/>
			<point x="240" y="652"/>
			<point x="308" y="720"/>
			<point x="390" y="720" type="curve" smooth="yes"/>
			<point x="421" y="720"/>
			<point x="447" y="712"/>
			<point x="473" y="695" type="curve"/>
			<point x="562" y="828" type="line"/>
			<point x="511" y="861"/>
			<point x="450" y="880"/>
			<point x="390" y="880" type="curve" smooth="yes"/>
			<point x="219" y="880"/>
			<point x="80" y="740"/>
			<point x="80" y="569" type="curve" smooth="yes"/>
		</contour>
		<contour>
			<point x="200" y="440" type="line"/>
			<point x="467" y="440" type="line"/>
			<point x="467" y="600" type="line"/>
			<point x="200" y="600" type="line"/>
		</contour>
	</outline>
</glyph>
<glyph name="m" format="2">
	<advance width="900"/>
	<unicode hex="006D"/>
	<outline>
		<contour>
			<point x="678" y="0" type="line"/>
			<point x="838" y="0" type="line"/>
			<point x="838" y="376" type="line" smooth="yes"/>
			<point x="838" y="505"/>
			<point x="733" y="610"/>
			<point x="604" y="610" type="curve" smooth="yes"/>
			<point x="475" y="610"/>
			<point x="370" y="505"/>
			<point x="370" y="376" type="curve"/>
			<point x="530" y="376" type="line"/>
			<point x="530" y="417"/>
			<point x="563" y="450"/>
			<point x="604" y="450" type="curve" smooth="yes"/>
			<point x="645" y="450"/>
			<point x="678" y="417"/>
			<point x="678" y="376" type="curve" smooth="yes"/>
		</contour>
		<contour>
			<point x="62" y="0" type="line"/>
			<point x="222" y="0" type="line"/>
			<point x="222" y="376" type="line" smooth="yes"/>
			<point x="222" y="417"/>
			<point x="255" y="450"/>
			<point x="296" y="450" type="curve" smooth="yes"/>
			<point x="337" y="450"/>
			<point x="370" y="417"/>
			<point x="370" y="376" type="curve" smooth="yes"/>
			<point x="370" y="0" type="line"/>
			<point x="530" y="0" type="line"/>
			<point x="530" y="376" type="line" smooth="yes"/>
			<point x="530" y="506"/>
			<point x="425" y="610"/>
			<point x="296" y="610" type="curve" smooth="yes"/>
			<point x="167" y="610"/>
			<point x="62" y="505"/>
			<point x="62" y="376" type="curve" smooth="yes"/>
		</contour>
	</outline>
</glyph>
<glyph name="o" format="2">
	<advance width="741"/>
	<unicode hex="006F"/>
	<guideline x="370" y="700" angle="90"/>
	<anchor x="370" y="-167" name="below"/>
	<anchor x="371" y="759" name="accent"/>
	<anchor x="370" y="969" name="above"/>
	<anchor x="370" y="301" name="slash"/>
	<anchor x="349" y="-1" name="bottom"/>
	<outline>
		<contour>
			<point x="370" y="-9" type="curve" smooth="yes"/>
			<point x="542" y="-9"/>
			<point x="681" y="130"/>
			<point x="681" y="301" type="curve" smooth="yes"/>
			<point x="681" y="472"/>
			<point x="541" y="611"/>
			<point x="370" y="611" type="curve" smooth="yes"/>
			<point x="199" y="611"/>
			<point x="60" y="472"/>
			<point x="60" y="301" type="curve" smooth="yes"/>
			<point x="60" y="130"/>
			<point x="199" y="-9"/>
		</contour>
		<contour>
			<point x="370" y="151" type="curve" smooth="yes"/>
			<point x="287" y="151"/>
			<point x="220" y="218"/>
			<point x="220" y="301" type="curve" smooth="yes"/>
			<point x="220" y="384"/>
			<point x="287" y="451"/>
			<point x="370" y="451" type="curve" smooth="yes"/>
			<point x="453" y="451"/>
			<point x="521" y="383"/>
			<point x="521" y="301" type="curve" smooth="yes"/>
			<point x="521" y="218"/>
			<point x="453" y="151"/>
		</contour>
	</outline>
</glyph>
<glyph name="r" format="2">
	<advance width="560"/>
	<unicode hex="0072"/>
	<anchor x="284" y="759" name="accent"/>
	<outline>
		<contour>
			<point x="80" y="0" type="line"/>
			<point x="240" y="0" type="line"/>
			<point x="240" y="404" type="line" smooth="yes"/>
			<point x="240" y="406"/>
			<point x="241" y="409"/>
			<point x="243" y="411" type="curve" smooth="yes"/>
			<point x="270" y="437"/>
			<point x="306" y="451"/>
			<point x="344" y="451" type="curve" smooth="yes"/>
			<point x="371" y="451"/>
			<point x="394" y="445"/>
			<point x="419" y="430" type="curve"/>
			<point x="500" y="568" type="line"/>
			<point x="454" y="595"/>
			<point x="401" y="611"/>
			<point x="344" y="611" type="curve" smooth="yes"/>
			<point x="249" y="611"/>
			<point x="163" y="567"/>
			<point x="106" y="499" type="curve" smooth="yes"/>
			<point x="86" y="475"/>
			<point x="80" y="450"/>
			<point x="80" y="418" type="curve" smooth="yes"/>
		</contour>
	</outline>
</glyph>
<glyph name="t" format="2">
	<advance width="530"/>
	<unicode hex="0074"/>
	<anchor x="395" y="700" name="accentside"/>
	<anchor x="157" y="297" name="bar"/>
	<anchor x="264" y="849" name="accent"/>
	<anchor x="284" y="8" name="bottom"/>
	<outline>
		<contour>
			<point x="270" y="0" type="curve" smooth="yes"/>
			<point x="450" y="0" type="line"/>
			<point x="450" y="160" type="line"/>
			<point x="270" y="160" type="line" smooth="yes"/>
			<point x="253" y="160"/>
			<point x="240" y="173"/>
			<point x="240" y="190" type="curve" smooth="yes"/>
			<point x="240" y="700" type="line"/>
			<point x="80" y="700" type="line"/>
			<point x="80" y="190" type="line" smooth="yes"/>
			<point x="80" y="85"/>
			<point x="165" y="0"/>
		</contour>
		<contour>
			<point x="155" y="440" type="line"/>
			<point x="450" y="440" type="line"/>
			<point x="450" y="600" type="line"/>
			<point x="155" y="600" type="line"/>
		</contour>
	</outline>
</glyph>
<glyph name="u" format="2">
	<advance width="732"/>
	<unicode hex="0075"/>
	<guideline x="366" y="700" angle="90"/>
	<anchor x="366" y="-167" name="below"/>
	<anchor x="366" y="759" name="accent"/>
	<anchor x="366" y="969" name="above"/>
	<anchor x="346" y="0" name="bottom"/>
	<outline>
		<contour>
			<point x="366" y="-9" type="curve" smooth="yes"/>
			<point x="524" y="-9"/>
			<point x="652" y="119"/>
			<point x="652" y="277" type="curve" smooth="yes"/>
			<point x="652" y="600" type="line"/>
			<point x="492" y="600" type="line"/>
			<point x="492" y="277" type="line" smooth="yes"/>
			<point x="492" y="207"/>
			<point x="436" y="151"/>
			<point x="366" y="151" type="curve" smooth="yes"/>
			<point x="296" y="151"/>
			<point x="240" y="207"/>
			<point x="240" y="277" type="curve" smooth="yes"/>
			<point x="240" y="600" type="line"/>
			<point x="80" y="600" type="line"/>
			<point x="80" y="277" type="line" smooth="yes"/>
			<point x="80" y="119"/>
			<point x="208" y="-9"/>
		</contour>
	</outline>
</glyph>
<glyph name="v" format="2">
	<advance width="705"/>
	<unicode hex="0076"/>
	<outline>
		<contour>
			<point x="352" y="-10" type="curve" smooth="yes"/>
			<point x="401" y="-10"/>
			<point x="450" y="21"/>
			<point x="473" y="82" type="curve" smooth="yes"/>
			<point x="665" y="600" type="line"/>
			<point x="494" y="600" type="line"/>
			<point x="357" y="229" type="line" smooth="yes"/>
			<point x="356" y="226"/>
			<point x="354" y="224"/>
			<point x="352" y="224" type="curve" smooth="yes"/>
			<point x="350" y="224"/>
			<point x="348" y="226"/>
			<point x="347" y="229" type="curve" smooth="yes"/>
			<point x="210" y="600" type="line"/>
			<point x="40" y="600" type="line"/>
			<point x="231" y="82" type="line" smooth="yes"/>
			<point x="254" y="21"/>
			<point x="303" y="-10"/>
		</contour>
	</outline>
</glyph>
<glyph name="w" format="2">
	<advance width="900"/>
	<unicode hex="0077"/>
	<anchor x="450" y="759" name="accent"/>
	<outline>
		<contour>
			<point x="604" y="-10" type="curve" smooth="yes"/>
			<point x="733" y="-10"/>
			<point x="838" y="95"/>
			<point x="838" y="224" type="curve" smooth="yes"/>
			<point x="838" y="600" type="line"/>
			<point x="678" y="600" type="line"/>
			<point x="678" y="224" type="line" smooth="yes"/>
			<point x="678" y="183"/>
			<point x="645" y="150"/>
			<point x="604" y="150" type="curve" smooth="yes"/>
			<point x="563" y="150"/>
			<point x="530" y="183"/>
			<point x="530" y="224" type="curve"/>
			<point x="370" y="224" type="line"/>
			<point x="370" y="95"/>
			<point x="475" y="-10"/>
		</contour>
		<contour>
			<point x="296" y="-10" type="curve" smooth="yes"/>
			<point x="425" y="-10"/>
			<point x="530" y="94"/>
			<point x="530" y="224" type="curve" smooth="yes"/>
			<point x="530" y="600" type="line"/>
			<point x="370" y="600" type="line"/>
			<point x="370" y="224" type="line" smooth="yes"/>
			<point x="370" y="183"/>
			<point x="337" y="150"/>
			<point x="296" y="150" type="curve" smooth="yes"/>
			<point x="255" y="150"/>
			<point x="222" y="183"/>
			<point x="222" y="224" type="curve" smooth="yes"/>
			<point x="222" y="600" type="line"/>
			<point x="62" y="600" type="line"/>
			<point x="62" y="224" type="line" smooth="yes"/>
			<point x="62" y="95"/>
			<point x="167" y="-10"/>
		</contour>
	</outline>
</glyph>
<glyph name="x" format="2">
	<advance width="700"/>
	<unicode hex="0078"/>
	<guideline x="681" y="642" angle="90"/>
	<outline>
		<contour>
			<point x="491" y="0" type="curve"/>
			<point x="651" y="0" type="line"/>
			<point x="651" y="87"/>
			<point x="608" y="165"/>
			<point x="545" y="225" type="curve" smooth="yes"/>
			<point x="257" y="499" type="line" smooth="yes"/>
			<point x="228" y="527"/>
			<point x="209" y="560"/>
			<point x="209" y="600" type="curve"/>
			<point x="49" y="600" type="line"/>
			<point x="49" y="513"/>
			<point x="92" y="435"/>
			<point x="155" y="375" type="curve" smooth="yes"/>
			<point x="443" y="101" type="line" smooth="yes"/>
			<point x="472" y="73"/>
			<point x="491" y="40"/>
		</contour>
		<contour>
			<point x="49" y="0" type="curve"/>
			<point x="209" y="0" type="line"/>
			<point x="209" y="40"/>
			<point x="228" y="73"/>
			<point x="257" y="101" type="curve" smooth="yes"/>
			<point x="545" y="375" type="line" smooth="yes"/>
			<point x="608" y="435"/>
			<point x="651" y="513"/>
			<point x="651" y="600" type="curve"/>
			<point x="491" y="600" type="line"/>
			<point x="491" y="560"/>
			<point x="472" y="527"/>
			<point x="443" y="499" type="curve" smooth="yes"/>
			<point x="155" y="225" type="line" smooth="yes"/>
			<point x="92" y="165"/>
			<point x="49" y="87"/>
		</contour>
	</outline>
</glyph>
<glyph name="z" format="2">
	<advance width="750"/>
	<unicode hex="007A"/>
	<anchor x="385" y="759" name="accent"/>
	<outline>
		<contour>
			<point x="167" y="0" type="curve" smooth="yes"/>
			<point x="678" y="0" type="line"/>
			<point x="678" y="160" type="line"/>
			<point x="167" y="160" type="line"/>
			<point x="206" y="160"/>
			<point x="232" y="127"/>
			<point x="232" y="93" type="curve" smooth="yes"/>
			<point x="232" y="76"/>
			<point x="225" y="60"/>
			<point x="210" y="46" type="curve"/>
			<point x="645" y="434" type="line" smooth="yes"/>
			<point x="668" y="454"/>
			<point x="678" y="480"/>
			<point x="678" y="505" type="curve" smooth="yes"/>
			<point x="678" y="554"/>
			<point x="640" y="600"/>
			<point x="582" y="600" type="curve" smooth="yes"/>
			<point x="81" y="600" type="line"/>
			<point x="81" y="440" type="line"/>
			<point x="582" y="440" type="line"/>
			<point x="543" y="440"/>
			<point x="517" y="473"/>
			<point x="517" y="507" type="curve" smooth="yes"/>
			<point x="517" y="523"/>
			<point x="524" y="540"/>
			<point x="538" y="553" type="curve"/>
			<point x="104" y="166" type="line" smooth="yes"/>
			<point x="81" y="146"/>
			<point x="71" y="120"/>
			<point x="71" y="95" type="curve" smooth="yes"/>
			<point x="71" y="46"/>
			<point x="109" y="0"/>
		</contour>
	</outline>
</glyph>
<glyph name="braceleft" format="2">
	<advance width="482"/>
	<unicode hex="007B"/>
	<outline>
		<contour>
			<point x="150" y="312" type="line"/>
			<point x="252" y="312"/>
			<point x="328" y="387"/>
			<point x="328" y="481" type="curve" smooth="yes"/>
			<point x="328" y="647" type="line" smooth="yes"/>
			<point x="328" y="677"/>
			<point x="355" y="700"/>
			<point x="382" y="700" type="curve"/>
			<point x="382" y="820" type="line"/>
			<point x="270" y="820"/>
			<point x="178" y="739"/>
			<point x="178" y="637" type="curve" smooth="yes"/>
			<point x="178" y="481" type="line" smooth="yes"/>
			<point x="178" y="452"/>
			<point x="163" y="432"/>
			<point x="150" y="432" type="curve"/>
		</contour>
		<contour>
			<point x="382" y="-116" type="curve"/>
			<point x="382" y="4" type="line"/>
			<point x="355" y="4"/>
			<point x="328" y="27"/>
			<point x="328" y="57" type="curve" smooth="yes"/>
			<point x="328" y="223" type="line" smooth="yes"/>
			<point x="328" y="317"/>
			<point x="252" y="392"/>
			<point x="150" y="392" type="curve"/>
			<point x="150" y="272" type="line"/>
			<point x="163" y="272"/>
			<point x="178" y="252"/>
			<point x="178" y="223" type="curve" smooth="yes"/>
			<point x="178" y="67" type="line" smooth="yes"/>
			<point x="178" y="-35"/>
			<point x="270" y="-116"/>
		</contour>
		<contour>
			<point x="100" y="432" type="line"/>
			<point x="100" y="272" type="line"/>
			<point x="150" y="272" type="line"/>
			<point x="150" y="432" type="line"/>
		</contour>
	</outline>
</glyph>
<glyph name="asciitilde" format="2">
	<advance width="700"/>
	<unicode hex="007E"/>
	<outline>
		<contour>
			<point x="410" y="276" type="curve" smooth="yes"/>
			<point x="471" y="276"/>
			<point x="528" y="309"/>
			<point x="562" y="366" type="curve"/>
			<point x="475" y="436" type="line"/>
			<point x="452" y="412"/>
			<point x="435" y="398"/>
			<point x="410" y="398" type="curve" smooth="yes"/>
			<point x="368" y="398"/>
			<point x="345" y="432"/>
			<point x="285" y="432" type="curve" smooth="yes"/>
			<point x="223" y="432"/>
			<point x="166" y="399"/>
			<point x="137" y="345" type="curve"/>
			<point x="224" y="269" type="line"/>
			<point x="242" y="295"/>
			<point x="258" y="311"/>
			<point x="285" y="311" type="curve" smooth="yes"/>
			<point x="333" y="311"/>
			<point x="340" y="276"/>
		</contour>
	</outline>
</glyph>
<glyph name="yen" format="2">
	<advance width="700"/>
	<unicode hex="00A5"/>
	<guideline x="662" y="30" angle="0"/>
	<guideline x="662" y="670" angle="0"/>
	<guideline x="508" y="-26" angle="0"/>
	<guideline x="508" y="729" angle="0"/>
	<outline>
		<contour>
			<point x="215" y="309" type="line"/>
			<point x="485" y="309" type="line"/>
			<point x="619" y="670" type="line"/>
			<point x="491" y="670" type="line"/>
			<point x="373" y="351" type="line" smooth="yes"/>
			<point x="367" y="336"/>
			<point x="359" y="330"/>
			<point x="350" y="330" type="curve" smooth="yes"/>
			<point x="342" y="330"/>
			<point x="333" y="337"/>
			<point x="328" y="351" type="curve" smooth="yes"/>
			<point x="210" y="670" type="line"/>
			<point x="81" y="670" type="line"/>
		</contour>
		<contour>
			<point x="291" y="-26" type="line"/>
			<point x="411" y="-26" type="line"/>
			<point x="411" y="120" type="line"/>
			<point x="291" y="120" type="line"/>
		</contour>
		<contour>
			<point x="140" y="104" type="line"/>
			<point x="560" y="104" type="line"/>
			<point x="560" y="189" type="line"/>
			<point x="140" y="189" type="line"/>
		</contour>
		<contour>
			<point x="140" y="249" type="line"/>
			<point x="560" y="249" type="line"/>
			<point x="560" y="334" type="line"/>
			<point x="466" y="334" type="line"/>
			<point x="466" y="319" type="line"/>
			<point x="233" y="319" type="line"/>
			<point x="233" y="334" type="line"/>
			<point x="140" y="334" type="line"/>
		</contour>
	</outline>
</glyph>
<glyph name="dieresis" format="2">
	<advance width="414"/>
	<unicode hex="00A8"/>
	<anchor x="207" y="717" name="_accent"/>
	<anchor x="207" y="717" name="_above"/>
	<outline>
		<contour>
			<point x="108" y="650" type="curve" smooth="yes"/>
			<point x="146" y="650"/>
			<point x="176" y="680"/>
			<point x="176" y="717" type="curve" smooth="yes"/>
			<point x="176" y="754"/>
			<point x="146" y="784"/>
			<point x="108" y="784" type="curve" smooth="yes"/>
			<point x="71" y="784"/>
			<point x="41" y="754"/>
			<point x="41" y="717" type="curve" smooth="yes"/>
			<point x="41" y="680"/>
			<point x="71" y="650"/>
		</contour>
		<contour>
			<point x="305" y="650" type="curve" smooth="yes"/>
			<point x="343" y="650"/>
			<point x="373" y="680"/>
			<point x="373" y="717" type="curve" smooth="yes"/>
			<point x="373" y="754"/>
			<point x="343" y="784"/>
			<point x="305" y="784" type="curve" smooth="yes"/>
			<point x="268" y="784"/>
			<point x="238" y="754"/>
			<point x="238" y="717" type="curve" smooth="yes"/>
			<point x="238" y="680"/>
			<point x="268" y="650"/>
		</contour>
	</outline>
</glyph>
<glyph name="macron" format="2">
	<advance width="340"/>
	<unicode hex="00AF"/>
	<anchor x="170" y="690" name="_accent"/>
	<anchor x="170" y="690" name="_above"/>
	<outline>
		<contour>
			<point x="0" y="713" type="line"/>
			<point x="0" y="628" type="line"/>
			<point x="340" y="628" type="line"/>
			<point x="340" y="713" type="line"/>
		</contour>
	</outline>
</glyph>
<glyph name="onesuperior" format="2">
	<advance width="300"/>
	<unicode hex="00B9"/>
	<outline>
		<contour>
			<point x="184" y="700" type="line"/>
			<point x="124" y="700" type="line"/>
			<point x="124" y="436" type="line"/>
			<point x="184" y="436" type="line"/>
		</contour>
		<contour>
			<point x="155" y="700" type="line"/>
			<point x="75" y="700" type="line"/>
			<point x="56" y="640" type="line"/>
			<point x="155" y="640" type="line"/>
		</contour>
	</outline>
</glyph>
<glyph name="ae" format="2">
	<advance width="1210"/>
	<unicode hex="00E6"/>
	<outline>
		<contour>
			<point x="258" y="0" type="curve" smooth="yes"/>
			<point x="493" y="0" type="line" smooth="yes"/>
			<point x="570" y="0"/>
			<point x="632" y="62"/>
			<point x="632" y="139" type="curve" smooth="yes"/>
			<point x="632" y="410" type="line"/>
			<point x="632" y="515"/>
			<point x="547" y="600"/>
			<point x="442" y="600" type="curve" smooth="yes"/>
			<point x="148" y="600" type="line"/>
			<point x="148" y="440" type="line"/>
			<point x="442" y="440" type="line" smooth="yes"/>
			<point x="459" y="440"/>
			<point x="472" y="427"/>
			<point x="472" y="410" type="curve" smooth="yes"/>
			<point x="472" y="139" type="line"/>
			<point x="479" y="146"/>
			<point x="485" y="153"/>
			<point x="492" y="160" type="curve"/>
			<point x="258" y="160" type="line" smooth="yes"/>
			<point x="241" y="160"/>
			<point x="228" y="173"/>
			<point x="228" y="190" type="curve" smooth="yes"/>
			<point x="228" y="207"/>
			<point x="241" y="220"/>
			<point x="258" y="220" type="curve" smooth="yes"/>
			<point x="553" y="220" type="line"/>
			<point x="553" y="380" type="line"/>
			<point x="258" y="380" type="line" smooth="yes"/>
			<point x="152" y="380"/>
			<point x="68" y="295"/>
			<point x="68" y="190" type="curve" smooth="yes"/>
			<point x="68" y="85"/>
			<point x="153" y="0"/>
		</contour>
		<contour>
			<point x="841" y="-9" type="curve" smooth="yes"/>
			<point x="952" y="-9"/>
			<point x="1053" y="51"/>
			<point x="1110" y="147" type="curve"/>
			<point x="946" y="194" type="line"/>
			<point x="917" y="167"/>
			<point x="880" y="151"/>
			<point x="839" y="151" type="curve" smooth="yes"/>
			<point x="756" y="151"/>
			<point x="691" y="221"/>
			<point x="691" y="301" type="curve" smooth="yes"/>
			<point x="691" y="383"/>
			<point x="758" y="450"/>
			<point x="841" y="450" type="curve" smooth="yes"/>
			<point x="924" y="450"/>
			<point x="990" y="383"/>
			<point x="990" y="300" type="curve"/>
			<point x="990" y="349"/>
			<point x="1030" y="350"/>
			<point x="1080" y="350" type="curve"/>
			<point x="643" y="351" type="line"/>
			<point x="643" y="231" type="line"/>
			<point x="1080" y="230" type="line" smooth="yes"/>
			<point x="1119" y="230"/>
			<point x="1150" y="261"/>
			<point x="1150" y="300" type="curve" smooth="yes"/>
			<point x="1150" y="471"/>
			<point x="1012" y="609"/>
			<point x="841" y="610" type="curve" smooth="yes"/>
			<point x="670" y="611"/>
			<point x="531" y="472"/>
			<point x="531" y="301" type="curve" smooth="yes"/>
			<point x="531" y="130"/>
			<point x="670" y="-9"/>
		</contour>
	</outline>
</glyph>
<glyph name="idotless" format="2">
	<advance width="360"/>
	<unicode hex="0131"/>
	<guideline x="180" y="701" angle="90"/>
	<anchor x="180" y="-167" name="below"/>
	<anchor x="180" y="759" name="accent"/>
	<anchor x="180" y="969" name="above"/>
	<anchor x="173" y="8" name="bottom"/>
	<outline>
		<contour>
			<point x="100" y="600" type="line"/>
			<point x="100" y="0" type="line"/>
			<point x="260" y="0" type="line"/>
			<point x="260" y="600" type="line"/>
		</contour>
	</outline>
</glyph>
<glyph name="Eng" format="2">
	<advance width="873"/>
	<unicode hex="014A"/>
	<anchor x="437" y="869" name="accent"/>
	<outline>
		<contour>
			<point x="603" y="-25" type="curve"/>
			<point x="713" y="-25" type="line"/>
			<point x="713" y="135" type="line"/>
			<point x="603" y="135" type="line"/>
			<point x="590" y="135"/>
			<point x="579" y="143"/>
			<point x="575" y="154" type="curve"/>
			<point x="451" y="596" type="line"/>
			<point x="426" y="671"/>
			<point x="355" y="726"/>
			<point x="271" y="726" type="curve"/>
			<point x="166" y="726"/>
			<point x="80" y="640"/>
			<point x="80" y="535" type="curve"/>
			<point x="80" y="0" type="line"/>
			<point x="240" y="0" type="line"/>
			<point x="240" y="535" type="line"/>
			<point x="240" y="552"/>
			<point x="254" y="566"/>
			<point x="271" y="566" type="curve"/>
			<point x="283" y="566"/>
			<point x="294" y="558"/>
			<point x="299" y="547" type="curve"/>
			<point x="422" y="105" type="line"/>
			<point x="447" y="30"/>
			<point x="519" y="-25"/>
		</contour>
		<contour>
			<point x="484" y="-230" type="line"/>
			<point x="593" y="-230" type="line" smooth="yes"/>
			<point x="723" y="-230"/>
			<point x="793" y="-160"/>
			<point x="793" y="-30" type="curve" smooth="yes"/>
			<point x="793" y="701" type="line"/>
			<point x="633" y="701" type="line"/>
			<point x="633" y="-30" type="line" smooth="yes"/>
			<point x="633" y="-52"/>
			<point x="615" y="-70"/>
			<point x="593" y="-70" type="curve" smooth="yes"/>
			<point x="484" y="-70" type="line"/>
		</contour>
	</outline>
</glyph>
<glyph name="OE" format="2">
	<advance width="1226"/>
	<unicode hex="0152"/>
	<outline>
		<contour>
			<point x="454" y="-25" type="curve"/>
			<point x="662" y="-25"/>
			<point x="830" y="143"/>
			<point x="830" y="350" type="curve"/>
			<point x="830" y="557"/>
			<point x="662" y="725"/>
			<point x="454" y="725" type="curve"/>
			<point x="247" y="725"/>
			<point x="79" y="557"/>
			<point x="79" y="350" type="curve"/>
			<point x="79" y="143"/>
			<point x="247" y="-25"/>
		</contour>
		<contour>
			<point x="454" y="135" type="curve"/>
			<point x="336" y="135"/>
			<point x="239" y="231"/>
			<point x="239" y="350" type="curve"/>
			<point x="239" y="469"/>
			<point x="336" y="565"/>
			<point x="454" y="565" type="curve"/>
			<point x="573" y="565"/>
			<point x="670" y="469"/>
			<point x="670" y="350" type="curve"/>
			<point x="670" y="231"/>
			<point x="573" y="135"/>
		</contour>
		<contour>
			<point x="769" y="0" type="curve" smooth="yes"/>
			<point x="1154" y="0" type="line"/>
			<point x="1154" y="160" type="line"/>
			<point x="609" y="160" type="line"/>
			<point x="609" y="56"/>
			<point x="665" y="0"/>
		</contour>
		<contour>
			<point x="749" y="270" type="line"/>
			<point x="992" y="270" type="line"/>
			<point x="992" y="430" type="line"/>
			<point x="749" y="430" type="line"/>
		</contour>
		<contour>
			<point x="609" y="540" type="curve"/>
			<point x="1154" y="540" type="line"/>
			<point x="1154" y="700" type="line"/>
			<point x="769" y="700" type="line" smooth="yes"/>
			<point x="665" y="700"/>
			<point x="609" y="644"/>
		</contour>
	</outline>
</glyph>
<glyph name="breve" format="2">
	<advance width="370"/>
	<unicode hex="02D8"/>
	<anchor x="185" y="723" name="_accent"/>
	<anchor x="185" y="723" name="_below"/>
	<outline>
		<contour>
			<point x="185" y="619" type="curve" smooth="yes"/>
			<point x="265" y="619"/>
			<point x="330" y="683"/>
			<point x="330" y="764" type="curve"/>
			<point x="245" y="764" type="line"/>
			<point x="245" y="731"/>
			<point x="219" y="704"/>
			<point x="185" y="704" type="curve" smooth="yes"/>
			<point x="151" y="704"/>
			<point x="125" y="730"/>
			<point x="125" y="764" type="curve"/>
			<point x="40" y="764" type="line"/>
			<point x="40" y="683"/>
			<point x="104" y="619"/>
		</contour>
	</outline>
</glyph>
<glyph name="tilde" format="2">
	<advance width="584"/>
	<unicode hex="02DC"/>
	<outline>
		<contour>
			<point x="360" y="623" type="curve" smooth="yes"/>
			<point x="426" y="623"/>
			<point x="484" y="677"/>
			<point x="484" y="758" type="curve"/>
			<point x="399" y="758" type="line"/>
			<point x="399" y="725"/>
			<point x="385" y="707"/>
			<point x="362" y="707" type="curve" smooth="yes"/>
			<point x="344" y="707"/>
			<point x="326" y="718"/>
			<point x="307" y="730" type="curve" smooth="yes"/>
			<point x="283" y="745"/>
			<point x="257" y="762"/>
			<point x="224" y="762" type="curve" smooth="yes"/>
			<point x="157" y="762"/>
			<point x="100" y="708"/>
			<point x="100" y="627" type="curve"/>
			<point x="184" y="627" type="line"/>
			<point x="184" y="660"/>
			<point x="199" y="678"/>
			<point x="222" y="678" type="curve" smooth="yes"/>
			<point x="239" y="678"/>
			<point x="257" y="667"/>
			<point x="276" y="655" type="curve" smooth="yes"/>
			<point x="301" y="639"/>
			<point x="328" y="623"/>
		</contour>
	</outline>
</glyph>
<glyph name="tildecomb" format="2">
	<advance width="584"/>
	<unicode hex="0303"/>
	<anchor x="272" y="780" name="_accent"/>
	<anchor x="292" y="780" name="_below"/>
	<anchor x="292" y="779" name="_above"/>
	<outline>
		<contour>
			<point x="360" y="710" type="curve" smooth="yes"/>
			<point x="426" y="710"/>
			<point x="484" y="764"/>
			<point x="484" y="845" type="curve"/>
			<point x="399" y="845" type="line"/>
			<point x="399" y="812"/>
			<point x="385" y="794"/>
			<point x="362" y="794" type="curve" smooth="yes"/>
			<point x="344" y="794"/>
			<point x="326" y="805"/>
			<point x="307" y="817" type="curve" smooth="yes"/>
			<point x="283" y="832"/>
			<point x="257" y="849"/>
			<point x="224" y="849" type="curve" smooth="yes"/>
			<point x="157" y="849"/>
			<point x="100" y="795"/>
			<point x="100" y="714" type="curve"/>
			<point x="184" y="714" type="line"/>
			<point x="184" y="747"/>
			<point x="199" y="765"/>
			<point x="222" y="765" type="curve" smooth="yes"/>
			<point x="239" y="765"/>
			<point x="257" y="754"/>
			<point x="276" y="742" type="curve" smooth="yes"/>
			<point x="301" y="726"/>
			<point x="328" y="710"/>
		</contour>
	</outline>
</glyph>
<glyph name="commaaccentcomb" format="2">
	<advance width="157"/>
	<unicode hex="0326"/>
	<anchor x="71" y="316" name="_accent"/>
	<outline>
		<contour>
			<point x="35" y="224" type="line"/>
			<point x="129" y="311" type="line"/>
			<point x="74" y="329" type="line"/>
			<point x="9" y="259" type="line"/>
		</contour>
		<contour>
			<point x="78" y="292" type="curve" smooth="yes"/>
			<point x="122" y="292"/>
			<point x="157" y="328"/>
			<point x="157" y="371" type="curve" smooth="yes"/>
			<point x="157" y="414"/>
			<point x="122" y="449"/>
			<point x="78" y="449" type="curve" smooth="yes"/>
			<point x="35" y="449"/>
			<point x="0" y="414"/>
			<point x="0" y="371" type="curve" smooth="yes"/>
			<point x="0" y="328"/>
			<point x="35" y="292"/>
		</contour>
	</outline>
</glyph>
<glyph name="strokeshortcomb" format="2">
	<advance width="320"/>
	<unicode hex="0335"/>
	<anchor x="157" y="391" name="_stroke"/>
	<anchor x="157" y="391" name="_accent"/>
	<anchor x="157" y="391" name="_bar"/>
	<anchor x="157" y="391" name="_below"/>
	<outline>
		<contour>
			<point x="0" y="348" type="line"/>
			<point x="320" y="348" type="line"/>
			<point x="320" y="434" type="line"/>
			<point x="0" y="434" type="line"/>
		</contour>
	</outline>
</glyph>
<glyph name="slashshortcomb" format="2">
	<advance width="761"/>
	<unicode hex="0337"/>
	<anchor x="389" y="359" name="_slash"/>
	<outline>
		<contour>
			<point x="168" y="198" type="line"/>
			<point x="228" y="138" type="line"/>
			<point x="610" y="519" type="line"/>
			<point x="550" y="579" type="line"/>
		</contour>
	</outline>
</glyph>
<glyph name="slashlongcomb" format="2">
	<advance width="761"/>
	<unicode hex="0338"/>
	<anchor x="380" y="350" name="_slash"/>
	<outline>
		<contour>
			<point x="28" y="58" type="line"/>
			<point x="88" y="-2" type="line"/>
			<point x="733" y="642" type="line"/>
			<point x="673" y="702" type="line"/>
		</contour>
	</outline>
</glyph>
<glyph name="Dje-cy" format="2">
	<advance width="828"/>
	<unicode hex="0402"/>
	<outline>
		<contour>
			<point x="518" y="0" type="line"/>
			<point x="656" y="0"/>
			<point x="768" y="111"/>
			<point x="768" y="249" type="curve" smooth="yes"/>
			<point x="768" y="387"/>
			<point x="657" y="498"/>
			<point x="519" y="498" type="curve" smooth="yes"/>
			<point x="381" y="498"/>
			<point x="270" y="387"/>
			<point x="270" y="249" type="curve"/>
			<point x="430" y="249" type="line"/>
			<point x="430" y="299"/>
			<point x="469" y="338"/>
			<point x="519" y="338" type="curve" smooth="yes"/>
			<point x="569" y="338"/>
			<point x="608" y="299"/>
			<point x="608" y="249" type="curve" smooth="yes"/>
			<point x="608" y="200"/>
			<point x="568" y="160"/>
			<point x="518" y="160" type="curve"/>
		</contour>
		<contour>
			<point x="270" y="0" type="line"/>
			<point x="430" y="0" type="line"/>
			<point x="430" y="585" type="line"/>
			<point x="270" y="585" type="line"/>
		</contour>
		<contour>
			<point x="40" y="550" type="line"/>
			<point x="660" y="550" type="line"/>
			<point x="660" y="700" type="line"/>
			<point x="40" y="700" type="line"/>
		</contour>
	</outline>
</glyph>
<glyph name="Tshe-cy" format="2">
	<advance width="923"/>
	<unicode hex="040B"/>
	<outline>
		<contour>
			<point x="40" y="550" type="line"/>
			<point x="660" y="550" type="line"/>
			<point x="660" y="700" type="line"/>
			<point x="40" y="700" type="line"/>
		</contour>
		<component base="Shha-cy" xOffset="189"/>
	</outline>
</glyph>
<glyph name="Be-cy" format="2">
	<advance width="778"/>
	<unicode hex="0411"/>
	<outline>
		<contour>
			<point x="240" y="0" type="curve" smooth="yes"/>
			<point x="508" y="0" type="line" smooth="yes"/>
			<point x="624" y="0"/>
			<point x="718" y="93"/>
			<point x="718" y="209" type="curve" smooth="yes"/>
			<point x="718" y="325"/>
			<point x="625" y="418"/>
			<point x="509" y="418" type="curve" smooth="yes"/>
			<point x="160" y="418" type="line"/>
			<point x="160" y="258" type="line"/>
			<point x="509" y="258" type="line" smooth="yes"/>
			<point x="537" y="258"/>
			<point x="558" y="237"/>
			<point x="558" y="209" type="curve" smooth="yes"/>
			<point x="558" y="182"/>
			<point x="536" y="160"/>
			<point x="508" y="160" type="curve" smooth="yes"/>
			<point x="243" y="160" type="line" smooth="yes"/>
			<point x="241" y="160"/>
			<point x="240" y="161"/>
			<point x="240" y="163" type="curve" smooth="yes"/>
			<point x="240" y="537" type="line" smooth="yes"/>
			<point x="240" y="539"/>
			<point x="241" y="540"/>
			<point x="243" y="540" type="curve" smooth="yes"/>
			<point x="593" y="540" type="line"/>
			<point x="593" y="700" type="line"/>
			<point x="243" y="700" type="line" smooth="yes"/>
			<point x="145" y="700"/>
			<point x="80" y="635"/>
			<point x="80" y="537" type="curve" smooth="yes"/>
			<point x="80" y="160" type="line" smooth="yes"/>
			<point x="80" y="56"/>
			<point x="136" y="0"/>
		</contour>
	</outline>
</glyph>
<glyph name="Ze-cy" format="2">
	<advance width="774"/>
	<unicode hex="0417"/>
	<guideline x="80" y="604" angle="326.5092"/>
	<guideline x="80" y="96" angle="33.4908"/>
	<anchor x="383" y="-167" name="below"/>
	<anchor x="383" y="869" name="accent"/>
	<anchor x="383" y="1079" name="above"/>
	<anchor x="382" y="8" name="bottom"/>
	<outline>
		<contour>
			<point x="259" y="0" type="curve" smooth="yes"/>
			<point x="499" y="0" type="line" smooth="yes"/>
			<point x="617" y="0"/>
			<point x="714" y="97"/>
			<point x="714" y="215" type="curve" smooth="yes"/>
			<point x="714" y="280"/>
			<point x="685" y="338"/>
			<point x="640" y="376" type="curve"/>
			<point x="641" y="333" type="line"/>
			<point x="682" y="374"/>
			<point x="704" y="428"/>
			<point x="704" y="485" type="curve" smooth="yes"/>
			<point x="704" y="603"/>
			<point x="607" y="700"/>
			<point x="489" y="700" type="curve" smooth="yes"/>
			<point x="259" y="700" type="line" smooth="yes"/>
			<point x="185" y="700"/>
			<point x="119" y="662"/>
			<point x="80" y="604" type="curve"/>
			<point x="213" y="516" type="line"/>
			<point x="223" y="531"/>
			<point x="240" y="540"/>
			<point x="259" y="540" type="curve" smooth="yes"/>
			<point x="489" y="540" type="line" smooth="yes"/>
			<point x="520" y="540"/>
			<point x="544" y="516"/>
			<point x="544" y="485" type="curve" smooth="yes"/>
			<point x="544" y="454"/>
			<point x="520" y="430"/>
			<point x="489" y="430" type="curve" smooth="yes"/>
			<point x="259" y="430" type="line"/>
			<point x="259" y="270" type="line"/>
			<point x="499" y="270" type="line" smooth="yes"/>
			<point x="530" y="270"/>
			<point x="554" y="246"/>
			<point x="554" y="215" type="curve" smooth="yes"/>
			<point x="554" y="184"/>
			<point x="530" y="160"/>
			<point x="499" y="160" type="curve" smooth="yes"/>
			<point x="259" y="160" type="line" smooth="yes"/>
			<point x="240" y="160"/>
			<point x="223" y="169"/>
			<point x="213" y="184" type="curve"/>
			<point x="80" y="96" type="line"/>
			<point x="119" y="38"/>
			<point x="185" y="0"/>
		</contour>
	</outline>
</glyph>
<glyph name="Ii-cy" format="2">
	<advance width="891"/>
	<unicode hex="0418"/>
	<anchor x="443" y="869" name="accent"/>
	<outline>
		<contour>
			<point x="219" y="-23" type="curve" smooth="yes"/>
			<point x="318" y="-23"/>
			<point x="400" y="31"/>
			<point x="438" y="123" type="curve" smooth="yes"/>
			<point x="604" y="526" type="line" smooth="yes"/>
			<point x="613" y="547"/>
			<point x="631" y="560"/>
			<point x="651" y="560" type="curve" smooth="yes"/>
			<point x="659" y="560"/>
			<point x="667" y="558"/>
			<point x="676" y="553" type="curve"/>
			<point x="651" y="598" type="line"/>
			<point x="651" y="0" type="line"/>
			<point x="810" y="0" type="line"/>
			<point x="810" y="588" type="line" smooth="yes"/>
			<point x="810" y="667"/>
			<point x="756" y="720"/>
			<point x="671" y="720" type="curve" smooth="yes"/>
			<point x="573" y="720"/>
			<point x="490" y="666"/>
			<point x="452" y="574" type="curve" smooth="yes"/>
			<point x="286" y="171" type="line" smooth="yes"/>
			<point x="277" y="150"/>
			<point x="260" y="137"/>
			<point x="240" y="137" type="curve" smooth="yes"/>
			<point x="232" y="137"/>
			<point x="223" y="139"/>
			<point x="214" y="144" type="curve"/>
			<point x="240" y="99" type="line"/>
			<point x="240" y="700" type="line"/>
			<point x="80" y="700" type="line"/>
			<point x="80" y="109" type="line" smooth="yes"/>
			<point x="80" y="30"/>
			<point x="136" y="-23"/>
		</contour>
	</outline>
</glyph>
<glyph name="El-cy" format="2">
	<advance width="764"/>
	<unicode hex="041B"/>
	<outline>
		<contour>
			<point x="524" y="0" type="line"/>
			<point x="684" y="0" type="line"/>
			<point x="684" y="537" type="line" smooth="yes"/>
			<point x="684" y="635"/>
			<point x="619" y="700"/>
			<point x="521" y="700" type="curve" smooth="yes"/>
			<point x="262" y="700" type="line" smooth="yes"/>
			<point x="164" y="700"/>
			<point x="99" y="635"/>
			<point x="99" y="537" type="curve" smooth="yes"/>
			<point x="99" y="200" type="line"/>
			<point x="259" y="200" type="line"/>
			<point x="259" y="537" type="line" smooth="yes"/>
			<point x="259" y="539"/>
			<point x="260" y="540"/>
			<point x="262" y="540" type="curve" smooth="yes"/>
			<point x="521" y="540" type="line" smooth="yes"/>
			<point x="523" y="540"/>
			<point x="524" y="539"/>
			<point x="524" y="537" type="curve" smooth="yes"/>
		</contour>
		<contour>
			<point x="20" y="0" type="line"/>
			<point x="59" y="0" type="line" smooth="yes"/>
			<point x="189" y="0"/>
			<point x="259" y="70"/>
			<point x="259" y="200" type="curve"/>
			<point x="99" y="200" type="line"/>
			<point x="99" y="178"/>
			<point x="81" y="160"/>
			<point x="59" y="160" type="curve" smooth="yes"/>
			<point x="20" y="160" type="line"/>
		</contour>
	</outline>
</glyph>
<glyph name="Shcha-cy" format="2">
	<advance width="910"/>
	<unicode hex="0429"/>
	<outline>
		<contour>
			<point x="243" y="0" type="curve" smooth="yes"/>
			<point x="750" y="0" type="line"/>
			<point x="750" y="700" type="line"/>
			<point x="590" y="700" type="line"/>
			<point x="590" y="122" type="line"/>
			<point x="628" y="160" type="line"/>
			<point x="243" y="160" type="line" smooth="yes"/>
			<point x="241" y="160"/>
			<point x="240" y="161"/>
			<point x="240" y="163" type="curve" smooth="yes"/>
			<point x="240" y="700" type="line"/>
			<point x="80" y="700" type="line"/>
			<point x="80" y="163" type="line" smooth="yes"/>
			<point x="80" y="65"/>
			<point x="145" y="0"/>
		</contour>
		<contour>
			<point x="335" y="144" type="line"/>
			<point x="495" y="144" type="line"/>
			<point x="495" y="700" type="line"/>
			<point x="335" y="700" type="line"/>
		</contour>
		<contour>
			<point x="750" y="-102" type="line"/>
			<point x="870" y="-102" type="line"/>
			<point x="870" y="38" type="line" smooth="yes"/>
			<point x="870" y="109"/>
			<point x="819" y="160"/>
			<point x="750" y="160" type="curve"/>
		</contour>
	</outline>
</glyph>
<glyph name="Softsign-cy" format="2">
	<advance width="778"/>
	<unicode hex="042C"/>
	<outline>
		<contour>
			<point x="240" y="0" type="curve" smooth="yes"/>
			<point x="462" y="0" type="line"/>
			<point x="603" y="0"/>
			<point x="718" y="114"/>
			<point x="718" y="255" type="curve" smooth="yes"/>
			<point x="718" y="396"/>
			<point x="604" y="510"/>
			<point x="463" y="510" type="curve"/>
			<point x="164" y="510" type="line"/>
			<point x="164" y="350" type="line"/>
			<point x="462" y="350" type="line"/>
			<point x="514" y="350"/>
			<point x="557" y="307"/>
			<point x="557" y="255" type="curve" smooth="yes"/>
			<point x="557" y="203"/>
			<point x="514" y="160"/>
			<point x="462" y="160" type="curve"/>
			<point x="202" y="160" type="line"/>
			<point x="240" y="122" type="line"/>
			<point x="240" y="700" type="line"/>
			<point x="80" y="700" type="line"/>
			<point x="80" y="160" type="line" smooth="yes"/>
			<point x="80" y="56"/>
			<point x="136" y="0"/>
		</contour>
	</outline>
</glyph>
<glyph name="ze-cy" format="2">
	<advance width="695"/>
	<unicode hex="0437"/>
	<guideline x="316" y="700" angle="90"/>
	<anchor x="316" y="-167" name="below"/>
	<anchor x="316" y="759" name="accent"/>
	<anchor x="316" y="969" name="above"/>
	<anchor x="316" y="8" name="bottom"/>
	<outline>
		<contour>
			<point x="425" y="220" type="line"/>
			<point x="531" y="220"/>
			<point x="615" y="305"/>
			<point x="615" y="410" type="curve" smooth="yes"/>
			<point x="615" y="515"/>
			<point x="530" y="600"/>
			<point x="425" y="600" type="curve" smooth="yes"/>
			<point x="80" y="600" type="line"/>
			<point x="80" y="440" type="line"/>
			<point x="425" y="440" type="line" smooth="yes"/>
			<point x="442" y="440"/>
			<point x="455" y="427"/>
			<point x="455" y="410" type="curve" smooth="yes"/>
			<point x="455" y="393"/>
			<point x="442" y="380"/>
			<point x="425" y="380" type="curve"/>
		</contour>
		<contour>
			<point x="80" y="0" type="line"/>
			<point x="425" y="0" type="line" smooth="yes"/>
			<point x="530" y="0"/>
			<point x="615" y="85"/>
			<point x="615" y="190" type="curve" smooth="yes"/>
			<point x="615" y="295"/>
			<point x="531" y="380"/>
			<point x="425" y="380" type="curve" smooth="yes"/>
			<point x="80" y="380" type="line"/>
			<point x="80" y="220" type="line"/>
			<point x="425" y="220" type="line" smooth="yes"/>
			<point x="442" y="220"/>
			<point x="455" y="207"/>
			<point x="455" y="190" type="curve" smooth="yes"/>
			<point x="455" y="173"/>
			<point x="442" y="160"/>
			<point x="425" y="160" type="curve" smooth="yes"/>
			<point x="80" y="160" type="line"/>
		</contour>
	</outline>
</glyph>
<glyph name="shcha-cy" format="2">
	<advance width="929"/>
	<unicode hex="0449"/>
	<outline>
		<contour>
			<point x="243" y="0" type="curve" smooth="yes"/>
			<point x="749" y="0" type="line"/>
			<point x="749" y="600" type="line"/>
			<point x="589" y="600" type="line"/>
			<point x="589" y="122" type="line"/>
			<point x="627" y="160" type="line"/>
			<point x="243" y="160" type="line" smooth="yes"/>
			<point x="241" y="160"/>
			<point x="240" y="161"/>
			<point x="240" y="163" type="curve" smooth="yes"/>
			<point x="240" y="600" type="line"/>
			<point x="80" y="600" type="line"/>
			<point x="80" y="163" type="line" smooth="yes"/>
			<point x="80" y="65"/>
			<point x="145" y="0"/>
		</contour>
		<contour>
			<point x="749" y="-107" type="line"/>
			<point x="869" y="-107" type="line"/>
			<point x="869" y="33" type="line" smooth="yes"/>
			<point x="869" y="104"/>
			<point x="818" y="155"/>
			<point x="749" y="155" type="curve"/>
		</contour>
		<contour>
			<point x="335" y="144" type="line"/>
			<point x="495" y="144" type="line"/>
			<point x="495" y="600" type="line"/>
			<point x="335" y="600" type="line"/>
		</contour>
	</outline>
</glyph>
<glyph name="dje-cy" format="2">
	<advance width="720"/>
	<unicode hex="0452"/>
	<anchor x="146" y="701" name="bar"/>
	<anchor x="146" y="701" name="stroke"/>
	<outline>
		<contour>
			<point x="640" y="19" type="curve"/>
			<point x="480" y="19" type="line"/>
			<point x="480" y="-30"/>
			<point x="440" y="-70"/>
			<point x="390" y="-70" type="curve"/>
			<point x="390" y="-230" type="line"/>
			<point x="528" y="-230"/>
			<point x="640" y="-119"/>
		</contour>
		<contour>
			<point x="480" y="19" type="line"/>
			<point x="640" y="19" type="line"/>
			<point x="640" y="301" type="line" smooth="yes"/>
			<point x="640" y="470"/>
			<point x="500" y="611"/>
			<point x="330" y="611" type="curve" smooth="yes"/>
			<point x="226" y="611"/>
			<point x="135" y="559"/>
			<point x="78" y="480" type="curve"/>
			<point x="208" y="386" type="line"/>
			<point x="238" y="428"/>
			<point x="282" y="451"/>
			<point x="330" y="451" type="curve" smooth="yes"/>
			<point x="411" y="451"/>
			<point x="480" y="382"/>
			<point x="480" y="301" type="curve" smooth="yes"/>
		</contour>
		<contour>
			<point x="66" y="0" type="line"/>
			<point x="226" y="0" type="line"/>
			<point x="226" y="800" type="line"/>
			<point x="66" y="800" type="line"/>
		</contour>
		<component base="strokeshortcomb" xOffset="-14" yOffset="309"/>
	</outline>
</glyph>
<glyph name="lje-cy" format="2">
	<advance width="924"/>
	<unicode hex="0459"/>
	<outline>
		<contour>
			<point x="594" y="0" type="curve" smooth="yes"/>
			<point x="652" y="0" type="line" smooth="yes"/>
			<point x="769" y="0"/>
			<point x="864" y="94"/>
			<point x="864" y="211" type="curve" smooth="yes"/>
			<point x="864" y="327"/>
			<point x="770" y="421"/>
			<point x="653" y="421" type="curve" smooth="yes"/>
			<point x="566" y="421" type="line"/>
			<point x="566" y="261" type="line"/>
			<point x="653" y="261" type="line" smooth="yes"/>
			<point x="682" y="261"/>
			<point x="704" y="239"/>
			<point x="704" y="211" type="curve" smooth="yes"/>
			<point x="704" y="183"/>
			<point x="681" y="167"/>
			<point x="652" y="160" type="curve"/>
			<point x="556" y="160" type="line"/>
			<point x="594" y="122" type="line"/>
			<point x="594" y="374" type="line"/>
			<point x="434" y="374" type="line"/>
			<point x="434" y="160" type="line" smooth="yes"/>
			<point x="434" y="56"/>
			<point x="490" y="0"/>
		</contour>
		<contour>
			<point x="40" y="0" type="line"/>
			<point x="79" y="0" type="line" smooth="yes"/>
			<point x="209" y="0"/>
			<point x="279" y="70"/>
			<point x="279" y="200" type="curve"/>
			<point x="119" y="200" type="line"/>
			<point x="119" y="178"/>
			<point x="101" y="160"/>
			<point x="79" y="160" type="curve" smooth="yes"/>
			<point x="40" y="160" type="line"/>
		</contour>
		<contour>
			<point x="119" y="200" type="line"/>
			<point x="279" y="200" type="line"/>
			<point x="279" y="437" type="line" smooth="yes"/>
			<point x="279" y="439"/>
			<point x="280" y="440"/>
			<point x="282" y="440" type="curve" smooth="yes"/>
			<point x="431" y="440" type="line" smooth="yes"/>
			<point x="433" y="440"/>
			<point x="434" y="439"/>
			<point x="434" y="437" type="curve" smooth="yes"/>
			<point x="434" y="374" type="line"/>
			<point x="594" y="374" type="line"/>
			<point x="594" y="437" type="line" smooth="yes"/>
			<point x="594" y="535"/>
			<point x="529" y="600"/>
			<point x="431" y="600" type="curve" smooth="yes"/>
			<point x="282" y="600" type="line" smooth="yes"/>
			<point x="184" y="600"/>
			<point x="119" y="535"/>
			<point x="119" y="437" type="curve" smooth="yes"/>
		</contour>
	</outline>
</glyph>
<glyph name="dzhe-cy" format="2">
	<advance width="744"/>
	<unicode hex="045F"/>
	<outline>
		<contour>
			<point x="243" y="0" type="curve" smooth="yes"/>
			<point x="501" y="0" type="line" smooth="yes"/>
			<point x="599" y="0"/>
			<point x="664" y="65"/>
			<point x="664" y="163" type="curve" smooth="yes"/>
			<point x="664" y="600" type="line"/>
			<point x="504" y="600" type="line"/>
			<point x="504" y="163" type="line" smooth="yes"/>
			<point x="504" y="161"/>
			<point x="503" y="160"/>
			<point x="501" y="160" type="curve" smooth="yes"/>
			<point x="243" y="160" type="line" smooth="yes"/>
			<point x="241" y="160"/>
			<point x="240" y="161"/>
			<point x="240" y="163" type="curve" smooth="yes"/>
			<point x="240" y="600" type="line"/>
			<point x="80" y="600" type="line"/>
			<point x="80" y="163" type="line" smooth="yes"/>
			<point x="80" y="65"/>
			<point x="145" y="0"/>
		</contour>
		<contour>
			<point x="312" y="-100" type="line"/>
			<point x="432" y="-100" type="line"/>
			<point x="432" y="87" type="line"/>
			<point x="312" y="87" type="line"/>
		</contour>
	</outline>
</glyph>
<glyph name="Fita-cy" format="2">
	<advance width="863"/>
	<unicode hex="0472"/>
	<outline>
		<contour>
			<point x="579" y="270" type="curve" smooth="yes"/>
			<point x="642" y="270"/>
			<point x="698" y="310"/>
			<point x="737" y="366" type="curve"/>
			<point x="657" y="421" type="line"/>
			<point x="630" y="381"/>
			<point x="604" y="367"/>
			<point x="572" y="367" type="curve" smooth="yes"/>
			<point x="543" y="367"/>
			<point x="508" y="380"/>
			<point x="470" y="395" type="curve" smooth="yes"/>
			<point x="423" y="412"/>
			<point x="373" y="432"/>
			<point x="324" y="430" type="curve" smooth="yes"/>
			<point x="263" y="428"/>
			<point x="209" y="397"/>
			<point x="166" y="334" type="curve"/>
			<point x="245" y="279" type="line"/>
			<point x="273" y="319"/>
			<point x="299" y="333"/>
			<point x="331" y="333" type="curve" smooth="yes"/>
			<point x="361" y="333"/>
			<point x="396" y="320"/>
			<point x="434" y="305" type="curve" smooth="yes"/>
			<point x="480" y="288"/>
			<point x="530" y="268"/>
		</contour>
		<component base="O-cy"/>
	</outline>
</glyph>
<glyph name="Izhitsa-cy" format="2">
	<advance width="859"/>
	<unicode hex="0474"/>
	<outline>
		<contour>
			<point x="759" y="700" type="line" smooth="yes"/>
			<point x="678" y="700"/>
			<point x="605" y="652"/>
			<point x="579" y="573" type="curve" smooth="yes"/>
			<point x="443" y="154" type="line" smooth="yes"/>
			<point x="439" y="142"/>
			<point x="428" y="135"/>
			<point x="415" y="135" type="curve" smooth="yes"/>
			<point x="402" y="135"/>
			<point x="390" y="143"/>
			<point x="386" y="154" type="curve" smooth="yes"/>
			<point x="209" y="700" type="line"/>
			<point x="40" y="700" type="line"/>
			<point x="234" y="102" type="line" smooth="yes"/>
			<point x="261" y="20"/>
			<point x="334" y="-25"/>
			<point x="415" y="-25" type="curve" smooth="yes"/>
			<point x="496" y="-25"/>
			<point x="570" y="24"/>
			<point x="595" y="102" type="curve" smooth="yes"/>
			<point x="731" y="521" type="line" smooth="yes"/>
			<point x="735" y="533"/>
			<point x="746" y="540"/>
			<point x="759" y="540" type="curve" smooth="yes"/>
			<point x="819" y="540" type="line"/>
			<point x="819" y="700" type="line"/>
		</contour>
	</outline>
</glyph>
<glyph name="izhitsa-cy" format="2">
	<advance width="720"/>
	<unicode hex="0475"/>
	<outline>
		<contour>
			<point x="347" y="-10" type="curve" smooth="yes"/>
			<point x="411" y="-10"/>
			<point x="468" y="29"/>
			<point x="488" y="90" type="curve" smooth="yes"/>
			<point x="586" y="390" type="line" smooth="yes"/>
			<point x="596" y="421"/>
			<point x="624" y="440"/>
			<point x="657" y="440" type="curve" smooth="yes"/>
			<point x="680" y="440" type="line"/>
			<point x="680" y="600" type="line"/>
			<point x="657" y="600" type="line" smooth="yes"/>
			<point x="554" y="600"/>
			<point x="465" y="536"/>
			<point x="434" y="440" type="curve" smooth="yes"/>
			<point x="349" y="180" type="line" smooth="yes"/>
			<point x="348" y="178"/>
			<point x="347" y="178"/>
			<point x="346" y="178" type="curve" smooth="yes"/>
			<point x="345" y="178"/>
			<point x="344" y="178"/>
			<point x="343" y="180" type="curve" smooth="yes"/>
			<point x="205" y="600" type="line"/>
			<point x="40" y="600" type="line"/>
			<point x="205" y="90" type="line" smooth="yes"/>
			<point x="224" y="30"/>
			<point x="284" y="-10"/>
		</contour>
	</outline>
</glyph>
<glyph name="Ghestroke-cy" format="2">
	<advance width="721"/>
	<unicode hex="0492"/>
	<outline>
		<contour>
			<point x="140" y="0" type="line"/>
			<point x="300" y="0" type="line"/>
			<point x="300" y="537" type="line" smooth="yes"/>
			<point x="300" y="539"/>
			<point x="301" y="540"/>
			<point x="303" y="540" type="curve" smooth="yes"/>
			<point x="641" y="540" type="line"/>
			<point x="641" y="700" type="line"/>
			<point x="303" y="700" type="line" smooth="yes"/>
			<point x="205" y="700"/>
			<point x="140" y="635"/>
			<point x="140" y="537" type="curve" smooth="yes"/>
		</contour>
		<contour>
			<point x="60" y="314" type="line"/>
			<point x="641" y="314" type="line"/>
			<point x="641" y="399" type="line"/>
			<point x="60" y="399" type="line"/>
		</contour>
	</outline>
</glyph>
<glyph name="ghestroke-cy" format="2">
	<advance width="683"/>
	<unicode hex="0493"/>
	<outline>
		<contour>
			<point x="140" y="0" type="line"/>
			<point x="300" y="0" type="line"/>
			<point x="300" y="437" type="line" smooth="yes"/>
			<point x="300" y="439"/>
			<point x="301" y="440"/>
			<point x="303" y="440" type="curve" smooth="yes"/>
			<point x="603" y="440" type="line"/>
			<point x="603" y="600" type="line"/>
			<point x="303" y="600" type="line" smooth="yes"/>
			<point x="205" y="600"/>
			<point x="140" y="535"/>
			<point x="140" y="437" type="curve" smooth="yes"/>
		</contour>
		<contour>
			<point x="60" y="245" type="line"/>
			<point x="603" y="245" type="line"/>
			<point x="603" y="330" type="line"/>
			<point x="60" y="330" type="line"/>
		</contour>
	</outline>
</glyph>
<glyph name="Kaverticalstroke-cy" format="2">
	<advance width="945"/>
	<unicode hex="049C"/>
	<anchor x="419" y="869" name="accent"/>
	<outline>
		<contour>
			<point x="692" y="0" type="line"/>
			<point x="905" y="0" type="line"/>
			<point x="642" y="300" type="line" smooth="yes"/>
			<point x="628" y="315"/>
			<point x="622" y="333"/>
			<point x="622" y="350" type="curve" smooth="yes"/>
			<point x="622" y="367"/>
			<point x="629" y="385"/>
			<point x="642" y="400" type="curve" smooth="yes"/>
			<point x="905" y="700" type="line"/>
			<point x="692" y="700" type="line"/>
			<point x="522" y="506" type="line" smooth="yes"/>
			<point x="482" y="460"/>
			<point x="462" y="405"/>
			<point x="462" y="350" type="curve" smooth="yes"/>
			<point x="462" y="295"/>
			<point x="481" y="241"/>
			<point x="522" y="194" type="curve" smooth="yes"/>
		</contour>
		<contour>
			<point x="80" y="0" type="line"/>
			<point x="240" y="0" type="line"/>
			<point x="240" y="700" type="line"/>
			<point x="80" y="700" type="line"/>
		</contour>
		<contour>
			<point x="160" y="270" type="line"/>
			<point x="570" y="270" type="line"/>
			<point x="570" y="430" type="line"/>
			<point x="160" y="430" type="line"/>
		</contour>
		<contour>
			<point x="299" y="150" type="line"/>
			<point x="419" y="150" type="line"/>
			<point x="419" y="550" type="line"/>
			<point x="299" y="550" type="line"/>
		</contour>
	</outline>
</glyph>
<glyph name="Endescender-cy" format="2">
	<advance width="896"/>
	<unicode hex="04A2"/>
	<outline>
		<contour>
			<point x="716" y="162" type="curve" smooth="yes"/>
			<point x="636" y="162" type="line"/>
			<point x="636" y="0" type="line"/>
			<point x="754" y="0" type="line"/>
			<point x="716" y="38" type="line"/>
			<point x="716" y="-100" type="line"/>
			<point x="836" y="-100" type="line"/>
			<point x="836" y="40" type="line" smooth="yes"/>
			<point x="836" y="111"/>
			<point x="785" y="162"/>
		</contour>
		<component base="H"/>
	</outline>
</glyph>
<glyph name="enghe-cy" format="2">
	<advance width="848"/>
	<unicode hex="04A5"/>
	<outline>
		<contour>
			<point x="425" y="0" type="line"/>
			<point x="585" y="0" type="line"/>
			<point x="585" y="437" type="line" smooth="yes"/>
			<point x="585" y="439"/>
			<point x="586" y="440"/>
			<point x="588" y="440" type="curve" smooth="yes"/>
			<point x="808" y="440" type="line"/>
			<point x="808" y="600" type="line"/>
			<point x="588" y="600" type="line" smooth="yes"/>
			<point x="490" y="600"/>
			<point x="425" y="535"/>
			<point x="425" y="437" type="curve" smooth="yes"/>
		</contour>
		<contour>
			<point x="80" y="0" type="line"/>
			<point x="240" y="0" type="line"/>
			<point x="240" y="600" type="line"/>
			<point x="80" y="600" type="line"/>
		</contour>
		<contour>
			<point x="160" y="220" type="line"/>
			<point x="508" y="220" type="line"/>
			<point x="508" y="380" type="line"/>
			<point x="160" y="380" type="line"/>
		</contour>
	</outline>
</glyph>
<glyph name="Pemiddlehook-cy" format="2">
	<advance width="993"/>
	<unicode hex="04A6"/>
	<outline>
		<contour>
			<point x="80" y="0" type="line"/>
			<point x="240" y="0" type="line"/>
			<point x="240" y="537" type="line" smooth="yes"/>
			<point x="240" y="539"/>
			<point x="241" y="540"/>
			<point x="243" y="540" type="curve" smooth="yes"/>
			<point x="432" y="540" type="line" smooth="yes"/>
			<point x="434" y="540"/>
			<point x="435" y="539"/>
			<point x="435" y="537" type="curve" smooth="yes"/>
			<point x="435" y="0" type="line"/>
			<point x="595" y="0" type="line"/>
			<point x="595" y="537" type="line" smooth="yes"/>
			<point x="595" y="635"/>
			<point x="530" y="700"/>
			<point x="432" y="700" type="curve" smooth="yes"/>
			<point x="243" y="700" type="line" smooth="yes"/>
			<point x="145" y="700"/>
			<point x="80" y="635"/>
			<point x="80" y="537" type="curve" smooth="yes"/>
		</contour>
		<contour>
			<point x="683" y="0" type="line"/>
			<point x="821" y="0"/>
			<point x="933" y="111"/>
			<point x="933" y="249" type="curve" smooth="yes"/>
			<point x="933" y="387"/>
			<point x="822" y="498"/>
			<point x="684" y="498" type="curve" smooth="yes"/>
			<point x="546" y="498"/>
			<point x="435" y="387"/>
			<point x="435" y="249" type="curve"/>
			<point x="595" y="249" type="line"/>
			<point x="595" y="299"/>
			<point x="634" y="338"/>
			<point x="684" y="338" type="curve" smooth="yes"/>
			<point x="734" y="338"/>
			<point x="773" y="299"/>
			<point x="773" y="249" type="curve" smooth="yes"/>
			<point x="773" y="200"/>
			<point x="733" y="160"/>
			<point x="683" y="160" type="curve"/>
		</contour>
	</outline>
</glyph>
<glyph name="Ustraitstroke-cy" format="2">
	<advance width="800"/>
	<unicode hex="04B0"/>
	<outline>
		<contour>
			<point x="110" y="399" type="line"/>
			<point x="110" y="314" type="line"/>
			<point x="691" y="314" type="line"/>
			<point x="691" y="399" type="line"/>
		</contour>
		<component base="Ustrait-cy"/>
	</outline>
</glyph>
<glyph name="Tetse-cy" format="2">
	<advance width="1065"/>
	<unicode hex="04B4"/>
	<outline>
		<contour>
			<point x="433" y="0" type="curve" smooth="yes"/>
			<point x="885" y="0" type="line"/>
			<point x="885" y="700" type="line"/>
			<point x="725" y="700" type="line"/>
			<point x="725" y="122" type="line"/>
			<point x="763" y="160" type="line"/>
			<point x="433" y="160" type="line" smooth="yes"/>
			<point x="431" y="160"/>
			<point x="430" y="161"/>
			<point x="430" y="163" type="curve" smooth="yes"/>
			<point x="430" y="700" type="line"/>
			<point x="270" y="700" type="line"/>
			<point x="270" y="163" type="line" smooth="yes"/>
			<point x="270" y="65"/>
			<point x="335" y="0"/>
		</contour>
		<contour>
			<point x="885" y="-100" type="line"/>
			<point x="1005" y="-100" type="line"/>
			<point x="1005" y="40" type="line" smooth="yes"/>
			<point x="1005" y="111"/>
			<point x="954" y="162"/>
			<point x="885" y="162" type="curve"/>
		</contour>
		<contour>
			<point x="40" y="550" type="line"/>
			<point x="660" y="550" type="line"/>
			<point x="660" y="700" type="line"/>
			<point x="40" y="700" type="line"/>
		</contour>
	</outline>
</glyph>
<glyph name="tetse-cy" format="2">
	<advance width="999"/>
	<unicode hex="04B5"/>
	<outline>
		<contour>
			<point x="392" y="0" type="curve" smooth="yes"/>
			<point x="819" y="0" type="line"/>
			<point x="819" y="600" type="line"/>
			<point x="659" y="600" type="line"/>
			<point x="659" y="122" type="line"/>
			<point x="697" y="160" type="line"/>
			<point x="392" y="160" type="line" smooth="yes"/>
			<point x="390" y="160"/>
			<point x="389" y="161"/>
			<point x="389" y="163" type="curve" smooth="yes"/>
			<point x="389" y="600" type="line"/>
			<point x="229" y="600" type="line"/>
			<point x="229" y="163" type="line" smooth="yes"/>
			<point x="229" y="65"/>
			<point x="294" y="0"/>
		</contour>
		<contour>
			<point x="819" y="-102" type="line"/>
			<point x="939" y="-102" type="line"/>
			<point x="939" y="38" type="line" smooth="yes"/>
			<point x="939" y="109"/>
			<point x="888" y="160"/>
			<point x="819" y="160" type="curve"/>
		</contour>
		<contour>
			<point x="40" y="450" type="line"/>
			<point x="580" y="450" type="line"/>
			<point x="580" y="600" type="line"/>
			<point x="40" y="600" type="line"/>
		</contour>
	</outline>
</glyph>
<glyph name="Chedescender-cy" format="2">
	<advance width="834"/>
	<unicode hex="04B6"/>
	<outline>
		<contour>
			<point x="654" y="162" type="curve"/>
			<point x="654" y="-100" type="line"/>
			<point x="774" y="-100" type="line"/>
			<point x="774" y="40" type="line" smooth="yes"/>
			<point x="774" y="111"/>
			<point x="723" y="162"/>
		</contour>
		<component base="Shha-cy" xScale="-1" yScale="-1" xOffset="734" yOffset="700"/>
	</outline>
</glyph>
<glyph name="chedescender-cy" format="2">
	<advance width="800"/>
	<unicode hex="04B7"/>
	<outline>
		<contour>
			<point x="620" y="-100" type="line"/>
			<point x="740" y="-100" type="line"/>
			<point x="740" y="40" type="line" smooth="yes"/>
			<point x="740" y="111"/>
			<point x="689" y="162"/>
			<point x="620" y="162" type="curve"/>
		</contour>
		<component base="che-cy"/>
	</outline>
</glyph>
<glyph name="Cheverticalstroke-cy" format="2">
	<advance width="734"/>
	<unicode hex="04B8"/>
	<outline>
		<contour>
			<point x="329" y="100" type="line"/>
			<point x="414" y="100" type="line"/>
			<point x="414" y="550" type="line"/>
			<point x="329" y="550" type="line"/>
		</contour>
		<component base="Shha-cy" xScale="-1" yScale="-1" xOffset="734" yOffset="700"/>
	</outline>
</glyph>
<glyph name="cheverticalstroke-cy" format="2">
	<advance width="700"/>
	<unicode hex="04B9"/>
	<outline>
		<contour>
			<point x="309" y="80" type="line"/>
			<point x="394" y="80" type="line"/>
			<point x="394" y="530" type="line"/>
			<point x="309" y="530" type="line"/>
		</contour>
		<component base="che-cy"/>
	</outline>
</glyph>
<glyph name="Kahook-cy" format="2">
	<advance width="812"/>
	<unicode hex="04C3"/>
	<anchor x="379" y="869" name="accent"/>
	<outline>
		<contour>
			<point x="80" y="0" type="line"/>
			<point x="240" y="0" type="line"/>
			<point x="240" y="700" type="line"/>
			<point x="80" y="700" type="line"/>
		</contour>
		<contour>
			<point x="575" y="231" type="curve" smooth="yes"/>
			<point x="492" y="267" type="line" smooth="yes"/>
			<point x="458" y="280"/>
			<point x="434" y="312"/>
			<point x="434" y="350" type="curve" smooth="yes"/>
			<point x="434" y="390"/>
			<point x="453" y="426"/>
			<point x="482" y="453" type="curve" smooth="yes"/>
			<point x="752" y="700" type="line"/>
			<point x="516" y="700" type="line"/>
			<point x="380" y="575" type="line" smooth="yes"/>
			<point x="316" y="516"/>
			<point x="274" y="437"/>
			<point x="274" y="350" type="curve" smooth="yes"/>
			<point x="274" y="246"/>
			<point x="339" y="159"/>
			<point x="429" y="120" type="curve" smooth="yes"/>
			<point x="518" y="82" type="line" smooth="yes"/>
			<point x="550" y="68"/>
			<point x="572" y="37"/>
			<point x="572" y="0" type="curve" smooth="yes"/>
			<point x="572" y="-49"/>
			<point x="532" y="-89"/>
			<point x="482" y="-89" type="curve"/>
			<point x="482" y="-249" type="line"/>
			<point x="620" y="-249"/>
			<point x="732" y="-138"/>
			<point x="732" y="0" type="curve" smooth="yes"/>
			<point x="732" y="105"/>
			<point x="666" y="192"/>
		</contour>
	</outline>
</glyph>
<glyph name="kahook-cy" format="2">
	<advance width="757"/>
	<unicode hex="04C4"/>
	<anchor x="350" y="969" name="above"/>
	<anchor x="350" y="759" name="accent"/>
	<outline>
		<contour>
			<point x="430" y="-249" type="line"/>
			<point x="568" y="-249"/>
			<point x="680" y="-138"/>
			<point x="680" y="0" type="curve" smooth="yes"/>
			<point x="680" y="89"/>
			<point x="627" y="163"/>
			<point x="551" y="198" type="curve" smooth="yes"/>
			<point x="483" y="229" type="line" smooth="yes"/>
			<point x="456" y="241"/>
			<point x="435" y="266"/>
			<point x="435" y="299" type="curve" smooth="yes"/>
			<point x="435" y="311"/>
			<point x="440" y="324"/>
			<point x="451" y="336" type="curve" smooth="yes"/>
			<point x="697" y="600" type="line"/>
			<point x="479" y="600" type="line"/>
			<point x="334" y="444" type="line" smooth="yes"/>
			<point x="294" y="401"/>
			<point x="274" y="350"/>
			<point x="274" y="298" type="curve" smooth="yes"/>
			<point x="274" y="205"/>
			<point x="322" y="129"/>
			<point x="383" y="100" type="curve" smooth="yes"/>
			<point x="479" y="54" type="line" smooth="yes"/>
			<point x="497" y="45"/>
			<point x="519" y="27"/>
			<point x="519" y="-11" type="curve" smooth="yes"/>
			<point x="519" y="-50"/>
			<point x="479" y="-89"/>
			<point x="430" y="-89" type="curve"/>
		</contour>
		<contour>
			<point x="80" y="0" type="line"/>
			<point x="240" y="0" type="line"/>
			<point x="240" y="600" type="line"/>
			<point x="80" y="600" type="line"/>
		</contour>
	</outline>
</glyph>
<glyph name="enhook-cy" format="2">
	<advance width="735"/>
	<unicode hex="04C8"/>
	<outline>
		<contour>
			<point x="405" y="-230" type="line"/>
			<point x="543" y="-230"/>
			<point x="655" y="-119"/>
			<point x="655" y="19" type="curve" smooth="yes"/>
			<point x="655" y="600" type="line"/>
			<point x="495" y="600" type="line"/>
			<point x="495" y="19" type="line" smooth="yes"/>
			<point x="495" y="-30"/>
			<point x="455" y="-70"/>
			<point x="405" y="-70" type="curve"/>
		</contour>
		<contour>
			<point x="80" y="0" type="line"/>
			<point x="240" y="0" type="line"/>
			<point x="240" y="600" type="line"/>
			<point x="80" y="600" type="line"/>
		</contour>
		<contour>
			<point x="160" y="220" type="line"/>
			<point x="578" y="220" type="line"/>
			<point x="578" y="380" type="line"/>
			<point x="160" y="380" type="line"/>
		</contour>
	</outline>
</glyph>
<glyph name="Entail-cy" format="2">
	<advance width="873"/>
	<unicode hex="04C9"/>
	<outline>
		<contour>
			<point x="558" y="0" type="line"/>
			<point x="718" y="0" type="line"/>
			<point x="718" y="700" type="line"/>
			<point x="558" y="700" type="line"/>
		</contour>
		<contour>
			<point x="83" y="0" type="line"/>
			<point x="243" y="0" type="line"/>
			<point x="243" y="700" type="line"/>
			<point x="83" y="700" type="line"/>
		</contour>
		<contour>
			<point x="163" y="270" type="line"/>
			<point x="641" y="270" type="line"/>
			<point x="641" y="430" type="line"/>
			<point x="163" y="430" type="line"/>
		</contour>
		<component base="tail-cy" xOffset="527"/>
	</outline>
</glyph>
<glyph name="palochka-cy" format="2">
	<advance width="320"/>
	<unicode hex="04CF"/>
	<outline>
		<contour>
			<point x="240" y="800" type="line"/>
			<point x="80" y="800" type="line"/>
			<point x="80" y="0" type="line"/>
			<point x="240" y="0" type="line"/>
		</contour>
	</outline>
</glyph>
<glyph name="schwa-cy" format="2">
	<advance width="739"/>
	<unicode hex="04D9"/>
	<anchor x="370" y="-167" name="below"/>
	<anchor x="370" y="759" name="accent"/>
	<anchor x="369" y="-369" name="above"/>
	<anchor x="346" y="-1" name="bottom"/>
	<outline>
		<contour>
			<point x="369" y="609" type="curve" smooth="yes"/>
			<point x="258" y="609"/>
			<point x="157" y="549"/>
			<point x="100" y="453" type="curve"/>
			<point x="259" y="411" type="line"/>
			<point x="288" y="438"/>
			<point x="330" y="456"/>
			<point x="371" y="456" type="curve" smooth="yes"/>
			<point x="454" y="456"/>
			<point x="526" y="379"/>
			<point x="526" y="299" type="curve" smooth="yes"/>
			<point x="526" y="217"/>
			<point x="452" y="143"/>
			<point x="369" y="143" type="curve" smooth="yes"/>
			<point x="286" y="144"/>
			<point x="213" y="217"/>
			<point x="213" y="300" type="curve"/>
			<point x="213" y="251"/>
			<point x="180" y="251"/>
			<point x="130" y="251" type="curve"/>
			<point x="567" y="249" type="line"/>
			<point x="567" y="369" type="line"/>
			<point x="130" y="371" type="line" smooth="yes"/>
			<point x="91" y="371"/>
			<point x="60" y="339"/>
			<point x="60" y="300" type="curve" smooth="yes"/>
			<point x="60" y="129"/>
			<point x="198" y="-10"/>
			<point x="369" y="-10" type="curve" smooth="yes"/>
			<point x="540" y="-10"/>
			<point x="679" y="128"/>
			<point x="679" y="299" type="curve" smooth="yes"/>
			<point x="679" y="470"/>
			<point x="540" y="609"/>
		</contour>
	</outline>
</glyph>
<glyph name="Obarred-cy" format="2">
	<advance width="863"/>
	<unicode hex="04E8"/>
	<outline>
		<contour>
			<point x="165" y="290" type="line"/>
			<point x="697" y="290" type="line"/>
			<point x="697" y="410" type="line"/>
			<point x="165" y="410" type="line"/>
		</contour>
		<component base="O-cy"/>
	</outline>
</glyph>
<glyph name="obarred-cy" format="2">
	<advance width="741"/>
	<unicode hex="04E9"/>
	<outline>
		<contour>
			<point x="190" y="240" type="line"/>
			<point x="546" y="240" type="line"/>
			<point x="546" y="360" type="line"/>
			<point x="190" y="360" type="line"/>
		</contour>
		<component base="o-cy"/>
	</outline>
</glyph>
<glyph name="Hahook-cy" format="2">
	<advance width="880"/>
	<unicode hex="04FC"/>
	<outline>
		<contour>
			<point x="530" y="-230" type="line"/>
			<point x="668" y="-230"/>
			<point x="780" y="-119"/>
			<point x="780" y="19" type="curve" smooth="yes"/>
			<point x="780" y="102"/>
			<point x="735" y="189"/>
			<point x="674" y="244" type="curve" smooth="yes"/>
			<point x="288" y="597" type="line" smooth="yes"/>
			<point x="259" y="624"/>
			<point x="240" y="665"/>
			<point x="240" y="700" type="curve"/>
			<point x="80" y="700" type="line"/>
			<point x="80" y="624"/>
			<point x="122" y="534"/>
			<point x="186" y="475" type="curve" smooth="yes"/>
			<point x="572" y="122" type="line" smooth="yes"/>
			<point x="601" y="95"/>
			<point x="620" y="59"/>
			<point x="620" y="19" type="curve" smooth="yes"/>
			<point x="620" y="-30"/>
			<point x="580" y="-70"/>
			<point x="530" y="-70" type="curve"/>
		</contour>
		<contour>
			<point x="80" y="0" type="curve"/>
			<point x="240" y="0" type="line"/>
			<point x="240" y="35"/>
			<point x="259" y="77"/>
			<point x="288" y="103" type="curve" smooth="yes"/>
			<point x="694" y="475" type="line" smooth="yes"/>
			<point x="758" y="533"/>
			<point x="800" y="613"/>
			<point x="800" y="700" type="curve"/>
			<point x="640" y="700" type="line"/>
			<point x="640" y="664"/>
			<point x="621" y="623"/>
			<point x="592" y="597" type="curve" smooth="yes"/>
			<point x="186" y="225" type="line" smooth="yes"/>
			<point x="122" y="166"/>
			<point x="80" y="87"/>
		</contour>
	</outline>
</glyph>
<glyph name="Shhadescender-cy" format="2">
	<advance width="834"/>
	<unicode hex="0526"/>
	<outline>
		<contour>
			<point x="654" y="-100" type="line"/>
			<point x="774" y="-100" type="line"/>
			<point x="774" y="40" type="line" smooth="yes"/>
			<point x="774" y="111"/>
			<point x="723" y="162"/>
			<point x="654" y="162" type="curve"/>
		</contour>
		<component base="Shha-cy"/>
	</outline>
</glyph>
<glyph name="quoteright" format="2">
	<advance width="400"/>
	<unicode hex="2019"/>
	<outline>
		<contour>
			<point x="200" y="529" type="curve" smooth="yes"/>
			<point x="256" y="529"/>
			<point x="300" y="574"/>
			<point x="300" y="629" type="curve" smooth="yes"/>
			<point x="300" y="684"/>
			<point x="256" y="729"/>
			<point x="200" y="729" type="curve" smooth="yes"/>
			<point x="145" y="729"/>
			<point x="100" y="684"/>
			<point x="100" y="629" type="curve" smooth="yes"/>
			<point x="100" y="574"/>
			<point x="145" y="529"/>
		</contour>
		<contour>
			<point x="158" y="441" type="line"/>
			<point x="271" y="558" type="line"/>
			<point x="195" y="576" type="line"/>
			<point x="111" y="486" type="line"/>
		</contour>
	</outline>
</glyph>
<glyph name="euro" format="2">
	<advance width="700"/>
	<unicode hex="20AC"/>
	<guideline x="632" y="30" angle="0"/>
	<guideline x="632" y="670" angle="0"/>
	<outline>
		<contour>
			<point x="184" y="404" type="curve"/>
			<point x="304" y="404" type="line"/>
			<point x="304" y="485"/>
			<point x="369" y="550"/>
			<point x="451" y="550" type="curve" smooth="yes"/>
			<point x="601" y="550" type="line"/>
			<point x="601" y="670" type="line"/>
			<point x="451" y="670" type="line" smooth="yes"/>
			<point x="303" y="670"/>
			<point x="184" y="551"/>
		</contour>
		<contour>
			<point x="451" y="30" type="curve" smooth="yes"/>
			<point x="601" y="30" type="line"/>
			<point x="601" y="150" type="line"/>
			<point x="451" y="150" type="line" smooth="yes"/>
			<point x="369" y="150"/>
			<point x="304" y="215"/>
			<point x="304" y="296" type="curve"/>
			<point x="184" y="296" type="line"/>
			<point x="184" y="149"/>
			<point x="303" y="30"/>
		</contour>
		<contour>
			<point x="99" y="235" type="line"/>
			<point x="519" y="235" type="line"/>
			<point x="519" y="320" type="line"/>
			<point x="99" y="320" type="line"/>
		</contour>
		<contour>
			<point x="99" y="380" type="line"/>
			<point x="519" y="380" type="line"/>
			<point x="519" y="465" type="line"/>
			<point x="99" y="465" type="line"/>
		</contour>
	</outline>
</glyph>
<glyph name="ruble" format="2">
	<advance width="700"/>
	<unicode hex="20BD"/>
	<outline>
		<contour>
			<point x="86" y="306" type="line"/>
			<point x="433" y="307" type="line" smooth="yes"/>
			<point x="534" y="307"/>
			<point x="615" y="389"/>
			<point x="615" y="489" type="curve" smooth="yes"/>
			<point x="615" y="590"/>
			<point x="533" y="672"/>
			<point x="432" y="671" type="curve" smooth="yes"/>
			<point x="330" y="670" type="line" smooth="yes"/>
			<point x="226" y="669"/>
			<point x="174" y="614"/>
			<point x="174" y="510" type="curve" smooth="yes"/>
			<point x="174" y="343" type="line"/>
			<point x="294" y="343" type="line"/>
			<point x="294" y="510" type="line" smooth="yes"/>
			<point x="294" y="550"/>
			<point x="296" y="550"/>
			<point x="331" y="550" type="curve" smooth="yes"/>
			<point x="419" y="551" type="line" smooth="yes"/>
			<point x="463" y="551"/>
			<point x="498" y="516"/>
			<point x="498" y="472" type="curve" smooth="yes"/>
			<point x="498" y="428"/>
			<point x="463" y="393"/>
			<point x="418" y="393" type="curve" smooth="yes"/>
			<point x="86" y="391" type="line"/>
		</contour>
		<contour>
			<point x="174" y="30" type="line"/>
			<point x="294" y="30" type="line"/>
			<point x="294" y="204" type="line"/>
			<point x="174" y="204" type="line"/>
		</contour>
		<contour>
			<point x="86" y="162" type="line"/>
			<point x="433" y="163" type="line"/>
			<point x="432" y="247" type="line"/>
			<point x="85" y="246" type="line"/>
		</contour>
	</outline>
</glyph>
<glyph name="servicemark" format="2">
	<advance width="788"/>
	<unicode hex="2120"/>
	<outline>
		<contour>
			<point x="100" y="436" type="line"/>
			<point x="237" y="436" type="line" smooth="yes"/>
			<point x="283" y="436"/>
			<point x="320" y="473"/>
			<point x="320" y="519" type="curve" smooth="yes"/>
			<point x="320" y="565"/>
			<point x="283" y="601"/>
			<point x="237" y="601" type="curve" smooth="yes"/>
			<point x="173" y="601" type="line" smooth="yes"/>
			<point x="160" y="601"/>
			<point x="150" y="610"/>
			<point x="150" y="623" type="curve" smooth="yes"/>
			<point x="150" y="635"/>
			<point x="161" y="646"/>
			<point x="173" y="646" type="curve" smooth="yes"/>
			<point x="310" y="646" type="line"/>
			<point x="310" y="706" type="line"/>
			<point x="173" y="706" type="line" smooth="yes"/>
			<point x="127" y="706"/>
			<point x="90" y="669"/>
			<point x="90" y="623" type="curve" smooth="yes"/>
			<point x="90" y="577"/>
			<point x="127" y="541"/>
			<point x="173" y="541" type="curve" smooth="yes"/>
			<point x="237" y="541" type="line" smooth="yes"/>
			<point x="250" y="541"/>
			<point x="260" y="532"/>
			<point x="260" y="519" type="curve" smooth="yes"/>
			<point x="260" y="507"/>
			<point x="249" y="496"/>
			<point x="237" y="496" type="curve" smooth="yes"/>
			<point x="100" y="496" type="line"/>
		</contour>
		<contour>
			<point x="358" y="436" type="line"/>
			<point x="419" y="436" type="line"/>
			<point x="419" y="610" type="line" smooth="yes"/>
			<point x="419" y="632"/>
			<point x="436" y="650"/>
			<point x="458" y="650" type="curve" smooth="yes"/>
			<point x="480" y="650"/>
			<point x="498" y="632"/>
			<point x="498" y="610" type="curve" smooth="yes"/>
			<point x="498" y="436" type="line"/>
			<point x="559" y="436" type="line"/>
			<point x="559" y="610" type="line" smooth="yes"/>
			<point x="559" y="665"/>
			<point x="513" y="710"/>
			<point x="458" y="710" type="curve" smooth="yes"/>
			<point x="404" y="710"/>
			<point x="358" y="665"/>
			<point x="358" y="610" type="curve" smooth="yes"/>
		</contour>
		<contour>
			<point x="638" y="436" type="line"/>
			<point x="698" y="436" type="line"/>
			<point x="698" y="610" type="line" smooth="yes"/>
			<point x="698" y="665"/>
			<point x="653" y="710"/>
			<point x="598" y="710" type="curve" smooth="yes"/>
			<point x="543" y="710"/>
			<point x="498" y="665"/>
			<point x="498" y="610" type="curve"/>
			<point x="559" y="610" type="line"/>
			<point x="559" y="632"/>
			<point x="576" y="650"/>
			<point x="598" y="650" type="curve" smooth="yes"/>
			<point x="620" y="650"/>
			<point x="638" y="632"/>
			<point x="638" y="610" type="curve" smooth="yes"/>
		</contour>
	</outline>
</glyph>
<glyph name="northEastArrow" format="2">
	<advance width="800"/>
	<unicode hex="2197"/>
	<outline>
		<contour>
			<point x="266" y="141" type="line"/>
			<point x="563" y="438" type="line"/>
			<point x="479" y="523" type="line"/>
			<point x="182" y="226" type="line"/>
		</contour>
		<contour>
			<point x="499" y="219" type="line"/>
			<point x="619" y="221" type="line"/>
			<point x="619" y="496" type="line" smooth="yes"/>
			<point x="619" y="538"/>
			<point x="586" y="578"/>
			<point x="537" y="578" type="curve" smooth="yes"/>
			<point x="262" y="578" type="line"/>
			<point x="260" y="458" type="line"/>
			<point x="498" y="458" type="line"/>
		</contour>
	</outline>
</glyph>
<glyph name="partialdiff" format="2">
	<advance width="700"/>
	<unicode hex="2202"/>
	<outline>
		<contour>
			<point x="349" y="-21" type="curve" smooth="yes"/>
			<point x="507" y="-21"/>
			<point x="613" y="115"/>
			<point x="613" y="320" type="curve" smooth="yes"/>
			<point x="613" y="467"/>
			<point x="569" y="647"/>
			<point x="479" y="758" type="curve"/>
			<point x="384" y="685" type="line"/>
			<point x="419" y="642"/>
			<point x="452" y="573"/>
			<point x="472" y="492" type="curve"/>
			<point x="486" y="508" type="line"/>
			<point x="446" y="535"/>
			<point x="399" y="550"/>
			<point x="349" y="550" type="curve" smooth="yes"/>
			<point x="204" y="550"/>
			<point x="87" y="422"/>
			<point x="87" y="265" type="curve" smooth="yes"/>
			<point x="87" y="107"/>
			<point x="204" y="-21"/>
		</contour>
		<contour>
			<point x="349" y="99" type="curve" smooth="yes"/>
			<point x="272" y="99"/>
			<point x="207" y="172"/>
			<point x="207" y="265" type="curve" smooth="yes"/>
			<point x="207" y="357"/>
			<point x="272" y="430"/>
			<point x="349" y="430" type="curve" smooth="yes"/>
			<point x="425" y="430"/>
			<point x="495" y="377"/>
			<point x="495" y="265" type="curve" smooth="yes"/>
			<point x="495" y="172"/>
			<point x="425" y="99"/>
		</contour>
	</outline>
</glyph>
<glyph name="emptyset" format="2">
	<advance width="700"/>
	<unicode hex="2205"/>
	<outline>
		<contour>
			<point x="114" y="55" type="line"/>
			<point x="647" y="589" type="line"/>
			<point x="588" y="649" type="line"/>
			<point x="54" y="115" type="line"/>
		</contour>
		<contour>
			<point x="347" y="112" type="curve" smooth="yes"/>
			<point x="480" y="112"/>
			<point x="587" y="219"/>
			<point x="587" y="352" type="curve" smooth="yes"/>
			<point x="587" y="485"/>
			<point x="480" y="592"/>
			<point x="347" y="592" type="curve" smooth="yes"/>
			<point x="214" y="592"/>
			<point x="107" y="485"/>
			<point x="107" y="352" type="curve" smooth="yes"/>
			<point x="107" y="219"/>
			<point x="214" y="112"/>
		</contour>
		<contour>
			<point x="347" y="232" type="curve" smooth="yes"/>
			<point x="280" y="232"/>
			<point x="227" y="285"/>
			<point x="227" y="352" type="curve" smooth="yes"/>
			<point x="227" y="419"/>
			<point x="280" y="472"/>
			<point x="347" y="472" type="curve" smooth="yes"/>
			<point x="414" y="472"/>
			<point x="467" y="419"/>
			<point x="467" y="352" type="curve" smooth="yes"/>
			<point x="467" y="285"/>
			<point x="414" y="232"/>
		</contour>
	</outline>
</glyph>
<glyph name="product" format="2">
	<advance width="700"/>
	<unicode hex="220F"/>
	<outline>
		<contour>
			<point x="145" y="700" type="line"/>
			<point x="145" y="0" type="line"/>
			<point x="265" y="0" type="line"/>
			<point x="265" y="700" type="line"/>
		</contour>
		<contour>
			<point x="675" y="700" type="line"/>
			<point x="25" y="700" type="line"/>
			<point x="25" y="580" type="line"/>
			<point x="675" y="580" type="line"/>
		</contour>
		<contour>
			<point x="435" y="700" type="line"/>
			<point x="435" y="0" type="line"/>
			<point x="555" y="0" type="line"/>
			<point x="555" y="700" type="line"/>
		</contour>
	</outline>
</glyph>
<glyph name="minus" format="2">
	<advance width="700"/>
	<unicode hex="2212"/>
	<outline>
		<contour>
			<point x="520" y="410" type="line"/>
			<point x="180" y="410" type="line"/>
			<point x="180" y="290" type="line"/>
			<point x="520" y="290" type="line"/>
		</contour>
	</outline>
</glyph>
<glyph name="radical" format="2">
	<advance width="800"/>
	<unicode hex="221A"/>
	<outline>
		<contour>
			<point x="278" y="-97" type="line"/>
			<point x="568" y="648" type="line"/>
			<point x="724" y="648" type="line"/>
			<point x="724" y="768" type="line"/>
			<point x="486" y="768" type="line"/>
			<point x="278" y="233" type="line"/>
			<point x="188" y="463" type="line"/>
			<point x="76" y="419" type="line"/>
		</contour>
	</outline>
</glyph>
<glyph name="infinity" format="2">
	<advance width="1000"/>
	<unicode hex="221E"/>
	<outline>
		<contour>
			<point x="731" y="122" type="curve" smooth="yes"/>
			<point x="858" y="122"/>
			<point x="961" y="225"/>
			<point x="961" y="352" type="curve" smooth="yes"/>
			<point x="961" y="479"/>
			<point x="858" y="582"/>
			<point x="731" y="582" type="curve" smooth="yes"/>
			<point x="597" y="582"/>
			<point x="523" y="471"/>
			<point x="455" y="391" type="curve" smooth="yes"/>
			<point x="383" y="309"/>
			<point x="339" y="242"/>
			<point x="269" y="242" type="curve" smooth="yes"/>
			<point x="208" y="242"/>
			<point x="159" y="291"/>
			<point x="159" y="352" type="curve" smooth="yes"/>
			<point x="159" y="413"/>
			<point x="208" y="462"/>
			<point x="269" y="462" type="curve" smooth="yes"/>
			<point x="340" y="462"/>
			<point x="383" y="398"/>
			<point x="454" y="313" type="curve" smooth="yes"/>
			<point x="521" y="234"/>
			<point x="595" y="122"/>
		</contour>
		<contour>
			<point x="269" y="122" type="curve" smooth="yes"/>
			<point x="403" y="122"/>
			<point x="479" y="237"/>
			<point x="545" y="313" type="curve" smooth="yes"/>
			<point x="619" y="399"/>
			<point x="661" y="462"/>
			<point x="731" y="462" type="curve" smooth="yes"/>
			<point x="792" y="462"/>
			<point x="841" y="413"/>
			<point x="841" y="352" type="curve" smooth="yes"/>
			<point x="841" y="291"/>
			<point x="792" y="242"/>
			<point x="731" y="242" type="curve" smooth="yes"/>
			<point x="659" y="242"/>
			<point x="617" y="306"/>
			<point x="546" y="391" type="curve" smooth="yes"/>
			<point x="479" y="470"/>
			<point x="404" y="582"/>
			<point x="269" y="582" type="curve" smooth="yes"/>
			<point x="142" y="582"/>
			<point x="39" y="479"/>
			<point x="39" y="352" type="curve" smooth="yes"/>
			<point x="39" y="225"/>
			<point x="142" y="122"/>
		</contour>
	</outline>
</glyph>
<glyph name="approxequal" format="2">
	<advance width="700"/>
	<unicode hex="2248"/>
	<outline>
		<contour>
			<point x="410" y="366" type="curve" smooth="yes"/>
			<point x="471" y="366"/>
			<point x="528" y="399"/>
			<point x="562" y="456" type="curve"/>
			<point x="475" y="526" type="line"/>
			<point x="452" y="502"/>
			<point x="435" y="488"/>
			<point x="410" y="488" type="curve" smooth="yes"/>
			<point x="368" y="488"/>
			<point x="345" y="522"/>
			<point x="285" y="522" type="curve" smooth="yes"/>
			<point x="223" y="522"/>
			<point x="166" y="489"/>
			<point x="137" y="435" type="curve"/>
			<point x="224" y="359" type="line"/>
			<point x="242" y="385"/>
			<point x="258" y="401"/>
			<point x="285" y="401" type="curve" smooth="yes"/>
			<point x="333" y="401"/>
			<point x="340" y="366"/>
		</contour>
		<contour>
			<point x="410" y="170" type="curve" smooth="yes"/>
			<point x="471" y="170"/>
			<point x="528" y="203"/>
			<point x="562" y="260" type="curve"/>
			<point x="475" y="330" type="line"/>
			<point x="452" y="306"/>
			<point x="435" y="292"/>
			<point x="410" y="292" type="curve" smooth="yes"/>
			<point x="368" y="292"/>
			<point x="345" y="326"/>
			<point x="285" y="326" type="curve" smooth="yes"/>
			<point x="223" y="326"/>
			<point x="166" y="293"/>
			<point x="137" y="239" type="curve"/>
			<point x="224" y="163" type="line"/>
			<point x="242" y="189"/>
			<point x="258" y="205"/>
			<point x="285" y="205" type="curve" smooth="yes"/>
			<point x="333" y="205"/>
			<point x="340" y="170"/>
		</contour>
	</outline>
</glyph>
<glyph name="apple" format="2">
	<advance width="1200"/>
	<unicode hex="F8FF"/>
	<outline>
		<contour>
			<point x="600" y="-181" type="curve" smooth="yes"/>
			<point x="611" y="-181"/>
			<point x="621" y="-179"/>
			<point x="631" y="-173" type="curve" smooth="yes"/>
			<point x="1010" y="46" type="line" smooth="yes"/>
			<point x="1029" y="57"/>
			<point x="1041" y="77"/>
			<point x="1041" y="100" type="curve" smooth="yes"/>
			<point x="1041" y="537" type="line" smooth="yes"/>
			<point x="1041" y="560"/>
			<point x="1029" y="580"/>
			<point x="1010" y="591" type="curve" smooth="yes"/>
			<point x="631" y="810" type="line" smooth="yes"/>
			<point x="621" y="816"/>
			<point x="611" y="818"/>
			<point x="600" y="818" type="curve" smooth="yes"/>
			<point x="589" y="818"/>
			<point x="578" y="816"/>
			<point x="569" y="810" type="curve"/>
			<point x="190" y="591" type="line" smooth="yes"/>
			<point x="171" y="580"/>
			<point x="159" y="560"/>
			<point x="159" y="537" type="curve" smooth="yes"/>
			<point x="159" y="100" type="line" smooth="yes"/>
			<point x="159" y="77"/>
			<point x="171" y="57"/>
			<point x="190" y="46" type="curve" smooth="yes"/>
			<point x="569" y="-173" type="line"/>
			<point x="578" y="-179"/>
			<point x="589" y="-181"/>
		</contour>
		<contour>
			<point x="308" y="87" type="line"/>
			<point x="281" y="103" type="line"/>
			<point x="308" y="103" type="line"/>
		</contour>
		<contour>
			<point x="364" y="56" type="line"/>
			<point x="336" y="71" type="line"/>
			<point x="336" y="103" type="line"/>
			<point x="364" y="103" type="line"/>
		</contour>
		<contour>
			<point x="281" y="134" type="line"/>
			<point x="296" y="161" type="line"/>
			<point x="312" y="134" type="line"/>
		</contour>
		<contour>
			<point x="419" y="23" type="line"/>
			<point x="391" y="39" type="line"/>
			<point x="391" y="103" type="line"/>
			<point x="419" y="103" type="line"/>
		</contour>
		<contour>
			<point x="474" y="-9" type="line"/>
			<point x="446" y="7" type="line"/>
			<point x="446" y="103" type="line"/>
			<point x="452" y="103" type="line" smooth="yes"/>
			<point x="457" y="103"/>
			<point x="463" y="103"/>
			<point x="468" y="103" type="curve" smooth="yes"/>
			<point x="474" y="103" type="line"/>
		</contour>
		<contour>
			<point x="345" y="134" type="line"/>
			<point x="313" y="190" type="line"/>
			<point x="329" y="218" type="line"/>
			<point x="377" y="134" type="line"/>
		</contour>
		<contour>
			<point x="529" y="-40" type="line"/>
			<point x="501" y="-24" type="line"/>
			<point x="501" y="103" type="line"/>
			<point x="529" y="103" type="line"/>
		</contour>
		<contour>
			<point x="616" y="-72" type="line"/>
			<point x="616" y="-47" type="line"/>
			<point x="659" y="-47" type="line"/>
		</contour>
		<contour>
			<point x="584" y="-72" type="line"/>
			<point x="556" y="-56" type="line"/>
			<point x="556" y="103" type="line"/>
			<point x="584" y="103" type="line"/>
		</contour>
		<contour>
			<point x="410" y="134" type="line"/>
			<point x="346" y="246" type="line"/>
			<point x="361" y="275" type="line"/>
			<point x="442" y="134" type="line"/>
		</contour>
		<contour>
			<point x="254" y="150" type="line"/>
			<point x="254" y="200" type="line"/>
			<point x="384" y="426" type="line"/>
			<point x="406" y="413" type="line"/>
			<point x="404" y="410" type="line"/>
			<point x="402" y="407" type="line"/>
			<point x="402" y="407"/>
			<point x="402" y="406"/>
			<point x="401" y="406" type="curve"/>
			<point x="400" y="404" type="line"/>
			<point x="400" y="402"/>
			<point x="399" y="401"/>
			<point x="398" y="400" type="curve"/>
			<point x="395" y="395" type="line"/>
			<point x="392" y="390"/>
			<point x="389" y="384"/>
			<point x="385" y="377" type="curve"/>
			<point x="385" y="376" type="line"/>
		</contour>
		<contour>
			<point x="254" y="250" type="line"/>
			<point x="254" y="300" type="line"/>
			<point x="341" y="451" type="line"/>
			<point x="362" y="438" type="line"/>
		</contour>
		<contour>
			<point x="616" y="-22" type="line"/>
			<point x="616" y="3" type="line"/>
			<point x="746" y="3" type="line"/>
			<point x="702" y="-22" type="line"/>
		</contour>
		<contour>
			<point x="476" y="134" type="line"/>
			<point x="378" y="302" type="line"/>
			<point x="394" y="331" type="line"/>
			<point x="508" y="134" type="line"/>
		</contour>
		<contour>
			<point x="254" y="351" type="line"/>
			<point x="254" y="401" type="line"/>
			<point x="297" y="476" type="line"/>
			<point x="299" y="475" type="line"/>
			<point x="319" y="463" type="line"/>
		</contour>
		<contour>
			<point x="254" y="451" type="line"/>
			<point x="254" y="501" type="line"/>
			<point x="276" y="488" type="line"/>
		</contour>
		<contour>
			<point x="541" y="134" type="line"/>
			<point x="411" y="359" type="line"/>
			<point x="426" y="387" type="line"/>
			<point x="573" y="134" type="line"/>
		</contour>
		<contour>
			<point x="616" y="28" type="line"/>
			<point x="616" y="53" type="line"/>
			<point x="832" y="53" type="line"/>
			<point x="789" y="28" type="line"/>
		</contour>
		<contour>
			<point x="421" y="440" type="curve"/>
			<point x="269" y="527" type="line"/>
			<point x="297" y="543" type="line"/>
			<point x="435" y="464" type="line"/>
			<point x="432" y="459"/>
			<point x="430" y="455"/>
			<point x="427" y="451" type="curve"/>
			<point x="426" y="448" type="line"/>
			<point x="426" y="447" type="line"/>
			<point x="422" y="442" type="line"/>
			<point x="421" y="441"/>
			<point x="421" y="440"/>
		</contour>
		<contour>
			<point x="486" y="346" type="line"/>
			<point x="454" y="403" type="line"/>
			<point x="486" y="403" type="line"/>
		</contour>
		<contour>
			<point x="551" y="234" type="line"/>
			<point x="519" y="291" type="line"/>
			<point x="519" y="403" type="line"/>
			<point x="551" y="403" type="line"/>
		</contour>
		<contour>
			<point x="616" y="78" type="line"/>
			<point x="616" y="103" type="line"/>
			<point x="919" y="103" type="line"/>
			<point x="876" y="78" type="line"/>
		</contour>
		<contour>
			<point x="600" y="150" type="line"/>
			<point x="584" y="178" type="line"/>
			<point x="584" y="403" type="line"/>
			<point x="616" y="403" type="line"/>
			<point x="616" y="178" type="line"/>
		</contour>
		<contour>
			<point x="600" y="-150" type="curve" smooth="yes"/>
			<point x="595" y="-150"/>
			<point x="589" y="-149"/>
			<point x="584" y="-146" type="curve"/>
			<point x="206" y="73" type="line"/>
			<point x="196" y="78"/>
			<point x="190" y="89"/>
			<point x="190" y="100" type="curve" smooth="yes"/>
			<point x="190" y="537" type="line" smooth="yes"/>
			<point x="190" y="548"/>
			<point x="196" y="559"/>
			<point x="206" y="564" type="curve"/>
			<point x="584" y="783" type="line"/>
			<point x="589" y="786"/>
			<point x="595" y="787"/>
			<point x="600" y="787" type="curve" smooth="yes"/>
			<point x="606" y="787"/>
			<point x="611" y="786"/>
			<point x="616" y="783" type="curve"/>
			<point x="994" y="564" type="line"/>
			<point x="1004" y="559"/>
			<point x="1010" y="548"/>
			<point x="1010" y="537" type="curve" smooth="yes"/>
			<point x="1010" y="100" type="line" smooth="yes"/>
			<point x="1010" y="89"/>
			<point x="1004" y="78"/>
			<point x="994" y="73" type="curve"/>
			<point x="616" y="-146" type="line"/>
			<point x="611" y="-149"/>
			<point x="606" y="-150"/>
		</contour>
		<contour>
			<point x="600" y="-119" type="line"/>
			<point x="979" y="100" type="line"/>
			<point x="979" y="537" type="line"/>
			<point x="600" y="756" type="line"/>
			<point x="221" y="537" type="line"/>
			<point x="221" y="100" type="line"/>
		</contour>
		<contour>
			<point x="449" y="487" type="curve"/>
			<point x="325" y="559" type="line"/>
			<point x="352" y="576" type="line"/>
			<point x="462" y="511" type="line"/>
			<point x="460" y="506"/>
			<point x="457" y="502"/>
			<point x="455" y="498" type="curve"/>
			<point x="453" y="495" type="line"/>
			<point x="451" y="492"/>
			<point x="450" y="490"/>
		</contour>
		<contour>
			<point x="627" y="134" type="line"/>
			<point x="773" y="387" type="line"/>
			<point x="789" y="359" type="line"/>
			<point x="660" y="134" type="line"/>
		</contour>
		<contour>
			<point x="649" y="234" type="line"/>
			<point x="649" y="403" type="line"/>
			<point x="681" y="403" type="line"/>
			<point x="681" y="291" type="line"/>
		</contour>
		<contour>
			<point x="692" y="134" type="line"/>
			<point x="806" y="331" type="line"/>
			<point x="822" y="302" type="line"/>
			<point x="725" y="134" type="line"/>
		</contour>
		<contour>
			<point x="476" y="536" type="line"/>
			<point x="380" y="591" type="line"/>
			<point x="407" y="607" type="line"/>
			<point x="490" y="559" type="line"/>
		</contour>
		<contour>
			<point x="757" y="134" type="line"/>
			<point x="838" y="275" type="line"/>
			<point x="855" y="246" type="line"/>
			<point x="790" y="134" type="line"/>
		</contour>
		<contour>
			<point x="822" y="134" type="line"/>
			<point x="871" y="218" type="line"/>
			<point x="887" y="190" type="line"/>
			<point x="855" y="134" type="line"/>
		</contour>
		<contour>
			<point x="454" y="434" type="line"/>
			<point x="470" y="462" type="line"/>
			<point x="730" y="462" type="line"/>
			<point x="746" y="434" type="line"/>
		</contour>
		<contour>
			<point x="887" y="134" type="line"/>
			<point x="903" y="161" type="line"/>
			<point x="919" y="134" type="line"/>
		</contour>
		<contour>
			<point x="504" y="583" type="curve"/>
			<point x="435" y="623" type="line"/>
			<point x="462" y="639" type="line"/>
			<point x="517" y="607" type="line"/>
			<point x="513" y="599"/>
			<point x="508" y="591"/>
		</contour>
		<contour>
			<point x="486" y="491" type="line"/>
			<point x="503" y="519" type="line"/>
			<point x="697" y="519" type="line"/>
			<point x="713" y="491" type="line"/>
		</contour>
		<contour>
			<point x="714" y="346" type="line"/>
			<point x="714" y="403" type="line"/>
			<point x="746" y="403" type="line"/>
		</contour>
		<contour>
			<point x="946" y="150" type="line"/>
			<point x="932" y="174" type="line"/>
			<point x="946" y="181" type="line"/>
		</contour>
		<contour>
			<point x="919" y="198" type="line"/>
			<point x="914" y="206"/>
			<point x="910" y="213"/>
			<point x="905" y="221" type="curve"/>
			<point x="946" y="246" type="line"/>
			<point x="946" y="214" type="line"/>
		</contour>
		<contour>
			<point x="519" y="547" type="line"/>
			<point x="536" y="575" type="line"/>
			<point x="665" y="575" type="line"/>
			<point x="681" y="547" type="line"/>
		</contour>
		<contour>
			<point x="531" y="631" type="curve"/>
			<point x="490" y="655" type="line"/>
			<point x="517" y="671" type="line"/>
			<point x="546" y="655" type="line"/>
			<point x="541" y="647"/>
			<point x="536" y="639"/>
		</contour>
		<contour>
			<point x="891" y="246" type="line"/>
			<point x="886" y="253"/>
			<point x="881" y="261"/>
			<point x="877" y="270" type="curve"/>
			<point x="946" y="309" type="line"/>
			<point x="946" y="277" type="line"/>
		</contour>
		<contour>
			<point x="551" y="603" type="line"/>
			<point x="568" y="631" type="line"/>
			<point x="632" y="631" type="line"/>
			<point x="648" y="603" type="line"/>
		</contour>
		<contour>
			<point x="863" y="293" type="line"/>
			<point x="859" y="301"/>
			<point x="854" y="310"/>
			<point x="850" y="317" type="curve"/>
			<point x="946" y="373" type="line"/>
			<point x="946" y="341" type="line"/>
		</contour>
		<contour>
			<point x="559" y="679" type="line"/>
			<point x="546" y="686" type="line"/>
			<point x="573" y="703" type="line"/>
		</contour>
		<contour>
			<point x="836" y="341" type="line"/>
			<point x="822" y="365" type="line"/>
			<point x="946" y="436" type="line"/>
			<point x="946" y="405" type="line"/>
		</contour>
		<contour>
			<point x="584" y="660" type="line"/>
			<point x="600" y="687" type="line"/>
			<point x="616" y="660" type="line"/>
		</contour>
		<contour>
			<point x="779" y="440" type="line"/>
			<point x="777" y="442" type="line"/>
			<point x="776" y="445" type="line"/>
			<point x="760" y="473"/>
			<point x="672" y="625"/>
			<point x="627" y="703" type="curve"/>
			<point x="671" y="677" type="line"/>
			<point x="801" y="452" type="line"/>
		</contour>
		<contour>
			<point x="808" y="389" type="line"/>
			<point x="806" y="393" type="line"/>
			<point x="805" y="396"/>
			<point x="804" y="397"/>
			<point x="803" y="398" type="curve" smooth="yes"/>
			<point x="802" y="399" type="line"/>
			<point x="800" y="404"/>
			<point x="797" y="408"/>
			<point x="796" y="411" type="curve"/>
			<point x="795" y="413" type="line"/>
			<point x="946" y="501" type="line"/>
			<point x="946" y="469" type="line"/>
		</contour>
		<contour>
			<point x="822" y="465" type="line"/>
			<point x="714" y="652" type="line"/>
			<point x="757" y="627" type="line"/>
			<point x="844" y="477" type="line"/>
			<point x="830" y="469" type="line"/>
		</contour>
		<contour>
			<point x="866" y="490" type="line"/>
			<point x="801" y="602" type="line"/>
			<point x="844" y="577" type="line"/>
			<point x="887" y="502" type="line"/>
			<point x="880" y="498" type="line"/>
		</contour>
		<contour>
			<point x="909" y="515" type="line"/>
			<point x="887" y="552" type="line"/>
			<point x="931" y="527" type="line"/>
		</contour>
	</outline>
</glyph>
<glyph name="A.ss02" format="2">
	<advance width="800"/>
	<anchor x="415" y="-167" name="below"/>
	<anchor x="689" y="8" name="bottom"/>
	<anchor x="415" y="869" name="accent"/>
	<outline>
		<contour>
			<point x="415" y="111" type="curve" smooth="yes"/>
			<point x="463" y="111"/>
			<point x="501" y="149"/>
			<point x="501" y="197" type="curve" smooth="yes"/>
			<point x="501" y="245"/>
			<point x="463" y="283"/>
			<point x="415" y="283" type="curve" smooth="yes"/>
			<point x="367" y="283"/>
			<point x="329" y="245"/>
			<point x="329" y="197" type="curve" smooth="yes"/>
			<point x="329" y="149"/>
			<point x="367" y="111"/>
		</contour>
		<component base="A.ss01"/>
	</outline>
</glyph>
<glyph name="E.ss01" format="2">
	<advance width="761"/>
	<anchor x="391" y="1049" name="above"/>
	<anchor x="396" y="8" name="bottom"/>
	<anchor x="391" y="869" name="accent"/>
	<outline>
		<contour>
			<point x="233" y="0" type="curve" smooth="yes"/>
			<point x="688" y="0" type="line"/>
			<point x="688" y="160" type="line"/>
			<point x="233" y="160" type="line"/>
			<point x="233" y="270" type="line"/>
			<point x="688" y="270" type="line"/>
			<point x="688" y="430" type="line"/>
			<point x="233" y="430" type="line" smooth="yes"/>
			<point x="129" y="430"/>
			<point x="73" y="374"/>
			<point x="73" y="270" type="curve" smooth="yes"/>
			<point x="73" y="160" type="line" smooth="yes"/>
			<point x="73" y="56"/>
			<point x="129" y="0"/>
		</contour>
		<contour>
			<point x="103" y="540" type="line"/>
			<point x="689" y="540" type="line"/>
			<point x="689" y="700" type="line"/>
			<point x="103" y="700" type="line"/>
		</contour>
	</outline>
</glyph>
<glyph name="E_S.ss01" format="2">
	<advance width="1426"/>
	<outline>
		<contour>
			<point x="233" y="0" type="curve" smooth="yes"/>
			<point x="1131" y="0" type="line" smooth="yes"/>
			<point x="1248" y="0"/>
			<point x="1346" y="96"/>
			<point x="1346" y="215" type="curve" smooth="yes"/>
			<point x="1346" y="333"/>
			<point x="1249" y="430"/>
			<point x="1131" y="430" type="curve" smooth="yes"/>
			<point x="953" y="430" type="line" smooth="yes"/>
			<point x="922" y="430"/>
			<point x="898" y="454"/>
			<point x="898" y="485" type="curve" smooth="yes"/>
			<point x="898" y="516"/>
			<point x="922" y="540"/>
			<point x="953" y="540" type="curve" smooth="yes"/>
			<point x="1306" y="540" type="line"/>
			<point x="1306" y="700" type="line"/>
			<point x="953" y="700" type="line" smooth="yes"/>
			<point x="834" y="700"/>
			<point x="738" y="602"/>
			<point x="738" y="485" type="curve" smooth="yes"/>
			<point x="738" y="366"/>
			<point x="834" y="270"/>
			<point x="953" y="270" type="curve" smooth="yes"/>
			<point x="1131" y="270" type="line" smooth="yes"/>
			<point x="1161" y="270"/>
			<point x="1186" y="245"/>
			<point x="1186" y="215" type="curve" smooth="yes"/>
			<point x="1186" y="184"/>
			<point x="1162" y="160"/>
			<point x="1131" y="160" type="curve" smooth="yes"/>
			<point x="233" y="160" type="line"/>
			<point x="233" y="270" type="line"/>
			<point x="688" y="270" type="line"/>
			<point x="688" y="430" type="line"/>
			<point x="233" y="430" type="line" smooth="yes"/>
			<point x="129" y="430"/>
			<point x="73" y="374"/>
			<point x="73" y="270" type="curve" smooth="yes"/>
			<point x="73" y="160" type="line" smooth="yes"/>
			<point x="73" y="56"/>
			<point x="129" y="0"/>
		</contour>
		<contour>
			<point x="103" y="540" type="line"/>
			<point x="689" y="540" type="line"/>
			<point x="689" y="700" type="line"/>
			<point x="103" y="700" type="line"/>
		</contour>
	</outline>
</glyph>
<glyph name="I_J" format="2">
	<advance width="635"/>
	<outline>
		<contour>
			<point x="80" y="0" type="line"/>
			<point x="235" y="0" type="line" smooth="yes"/>
			<point x="429" y="0"/>
			<point x="555" y="126"/>
			<point x="555" y="320" type="curve" smooth="yes"/>
			<point x="555" y="700" type="line"/>
			<point x="395" y="700" type="line"/>
			<point x="395" y="320" type="line" smooth="yes"/>
			<point x="395" y="216"/>
			<point x="339" y="160"/>
			<point x="235" y="160" type="curve" smooth="yes"/>
			<point x="80" y="160" type="line"/>
		</contour>
		<contour>
			<point x="130" y="320" type="line"/>
			<point x="290" y="320" type="line"/>
			<point x="290" y="700" type="line"/>
			<point x="130" y="700" type="line"/>
		</contour>
	</outline>
</glyph>
<glyph name="K_S" format="2">
	<advance width="1387"/>
	<outline>
		<contour>
			<point x="543" y="0" type="line"/>
			<point x="1092" y="0" type="line"/>
			<point x="1209" y="0"/>
			<point x="1307" y="96"/>
			<point x="1307" y="215" type="curve"/>
			<point x="1307" y="333"/>
			<point x="1210" y="430"/>
			<point x="1092" y="430" type="curve"/>
			<point x="914" y="430" type="line"/>
			<point x="883" y="430"/>
			<point x="859" y="454"/>
			<point x="859" y="485" type="curve"/>
			<point x="859" y="516"/>
			<point x="883" y="540"/>
			<point x="914" y="540" type="curve"/>
			<point x="1267" y="540" type="line"/>
			<point x="1267" y="700" type="line"/>
			<point x="914" y="700" type="line"/>
			<point x="795" y="700"/>
			<point x="699" y="602"/>
			<point x="699" y="485" type="curve"/>
			<point x="699" y="366"/>
			<point x="795" y="270"/>
			<point x="914" y="270" type="curve"/>
			<point x="1092" y="270" type="line"/>
			<point x="1122" y="270"/>
			<point x="1147" y="245"/>
			<point x="1147" y="215" type="curve"/>
			<point x="1147" y="184"/>
			<point x="1123" y="160"/>
			<point x="1092" y="160" type="curve"/>
			<point x="543" y="160" type="line"/>
		</contour>
		<contour>
			<point x="72" y="0" type="line"/>
			<point x="232" y="0" type="line"/>
			<point x="232" y="700" type="line"/>
			<point x="72" y="700" type="line"/>
		</contour>
		<contour>
			<point x="479" y="0" type="line"/>
			<point x="705" y="0" type="line"/>
			<point x="457" y="248" type="line" smooth="yes"/>
			<point x="450" y="255"/>
			<point x="446" y="266"/>
			<point x="446" y="276" type="curve" smooth="yes"/>
			<point x="446" y="284"/>
			<point x="448" y="291"/>
			<point x="452" y="298" type="curve" smooth="yes"/>
			<point x="709" y="700" type="line"/>
			<point x="519" y="700" type="line"/>
			<point x="317" y="384" type="line" smooth="yes"/>
			<point x="297" y="352"/>
			<point x="286" y="314"/>
			<point x="286" y="276" type="curve" smooth="yes"/>
			<point x="286" y="224"/>
			<point x="307" y="172"/>
			<point x="344" y="135" type="curve" smooth="yes"/>
		</contour>
	</outline>
</glyph>
<glyph name="O.ss01" format="2">
	<advance width="800"/>
	<anchor x="400" y="869" name="accent"/>
	<anchor x="400" y="1049" name="above"/>
	<anchor x="400" y="350" name="slash"/>
	<anchor x="382" y="-18" name="bottom"/>
	<outline>
		<contour>
			<point x="400" y="-25" type="curve" smooth="yes"/>
			<point x="580" y="-25"/>
			<point x="725" y="123"/>
			<point x="725" y="350" type="curve" smooth="yes"/>
			<point x="725" y="577"/>
			<point x="580" y="725"/>
			<point x="400" y="725" type="curve" smooth="yes"/>
			<point x="221" y="725"/>
			<point x="76" y="577"/>
			<point x="76" y="350" type="curve" smooth="yes"/>
			<point x="76" y="123"/>
			<point x="221" y="-25"/>
		</contour>
		<contour>
			<point x="400" y="135" type="curve" smooth="yes"/>
			<point x="305" y="135"/>
			<point x="236" y="219"/>
			<point x="236" y="350" type="curve" smooth="yes"/>
			<point x="236" y="481"/>
			<point x="305" y="565"/>
			<point x="400" y="565" type="curve" smooth="yes"/>
			<point x="496" y="565"/>
			<point x="565" y="481"/>
			<point x="565" y="350" type="curve" smooth="yes"/>
			<point x="565" y="219"/>
			<point x="496" y="135"/>
		</contour>
	</outline>
</glyph>
<glyph name="R.ss01" format="2">
	<advance width="693"/>
	<anchor x="289" y="869" name="accent"/>
	<outline>
		<contour>
			<point x="374" y="0" type="line"/>
			<point x="613" y="0" type="line"/>
			<point x="351" y="236" type="line"/>
			<point x="347" y="240"/>
			<point x="345" y="245"/>
			<point x="345" y="251" type="curve" smooth="yes"/>
			<point x="345" y="262"/>
			<point x="353" y="270"/>
			<point x="365" y="270" type="curve" smooth="yes"/>
			<point x="383" y="270" type="line"/>
			<point x="502" y="270"/>
			<point x="598" y="366"/>
			<point x="598" y="485" type="curve" smooth="yes"/>
			<point x="598" y="604"/>
			<point x="500" y="700"/>
			<point x="382" y="700" type="curve" smooth="yes"/>
			<point x="60" y="700" type="line"/>
			<point x="60" y="540" type="line"/>
			<point x="382" y="540" type="line" smooth="yes"/>
			<point x="413" y="540"/>
			<point x="438" y="515"/>
			<point x="438" y="485" type="curve" smooth="yes"/>
			<point x="438" y="454"/>
			<point x="414" y="430"/>
			<point x="383" y="430" type="curve" smooth="yes"/>
			<point x="363" y="430" type="line" smooth="yes"/>
			<point x="247" y="430"/>
			<point x="175" y="350"/>
			<point x="175" y="260" type="curve" smooth="yes"/>
			<point x="175" y="212"/>
			<point x="196" y="160"/>
			<point x="244" y="117" type="curve" smooth="yes"/>
		</contour>
	</outline>
</glyph>
<glyph name="R.ss02" format="2">
	<advance width="798"/>
	<anchor x="389" y="869" name="accent"/>
	<outline>
		<contour>
			<point x="80" y="0" type="line"/>
			<point x="240" y="0" type="line"/>
			<point x="240" y="540" type="line"/>
			<point x="502" y="540" type="line" smooth="yes"/>
			<point x="533" y="540"/>
			<point x="558" y="515"/>
			<point x="558" y="485" type="curve" smooth="yes"/>
			<point x="558" y="454"/>
			<point x="534" y="430"/>
			<point x="503" y="430" type="curve" smooth="yes"/>
			<point x="406" y="430" type="line" smooth="yes"/>
			<point x="347" y="430"/>
			<point x="301" y="381"/>
			<point x="306" y="322" type="curve" smooth="yes"/>
			<point x="321" y="142"/>
			<point x="474" y="0"/>
			<point x="655" y="0" type="curve" smooth="yes"/>
			<point x="698" y="0" type="line"/>
			<point x="698" y="160" type="line"/>
			<point x="655" y="160" type="line" smooth="yes"/>
			<point x="557" y="160"/>
			<point x="473" y="238"/>
			<point x="466" y="335" type="curve"/>
			<point x="469" y="301"/>
			<point x="441" y="270"/>
			<point x="406" y="270" type="curve"/>
			<point x="503" y="270" type="line" smooth="yes"/>
			<point x="622" y="270"/>
			<point x="718" y="366"/>
			<point x="718" y="485" type="curve" smooth="yes"/>
			<point x="718" y="604"/>
			<point x="620" y="700"/>
			<point x="502" y="700" type="curve" smooth="yes"/>
			<point x="240" y="700" type="line" smooth="yes"/>
			<point x="151" y="700"/>
			<point x="80" y="629"/>
			<point x="80" y="541" type="curve" smooth="yes"/>
		</contour>
	</outline>
</glyph>
<glyph name="Y.ss01" format="2">
	<advance width="800"/>
	<anchor x="400" y="1049" name="above"/>
	<anchor x="400" y="869" name="accent"/>
	<outline>
		<contour>
			<point x="400" y="294" type="curve" smooth="yes"/>
			<point x="438" y="294"/>
			<point x="475" y="312"/>
			<point x="513" y="346" type="curve" smooth="yes"/>
			<point x="654" y="475" type="line"/>
			<point x="721" y="530"/>
			<point x="760" y="613"/>
			<point x="760" y="700" type="curve"/>
			<point x="600" y="700" type="line"/>
			<point x="600" y="660"/>
			<point x="581" y="624"/>
			<point x="552" y="597" type="curve" smooth="yes"/>
			<point x="372" y="432" type="line"/>
			<point x="428" y="432" type="line"/>
			<point x="248" y="597" type="line" smooth="yes"/>
			<point x="219" y="624"/>
			<point x="200" y="660"/>
			<point x="200" y="700" type="curve"/>
			<point x="40" y="700" type="line"/>
			<point x="40" y="613"/>
			<point x="79" y="530"/>
			<point x="146" y="475" type="curve"/>
			<point x="287" y="346" type="line" smooth="yes"/>
			<point x="324" y="312"/>
			<point x="362" y="294"/>
		</contour>
		<contour>
			<point x="320" y="0" type="line"/>
			<point x="480" y="0" type="line"/>
			<point x="480" y="400" type="line"/>
			<point x="320" y="400" type="line"/>
		</contour>
	</outline>
</glyph>
<glyph name="bullet.case" format="2">
	<advance width="400"/>
	<outline>
		<contour>
			<point x="200" y="250" type="curve" smooth="yes"/>
			<point x="256" y="250"/>
			<point x="300" y="295"/>
			<point x="300" y="350" type="curve" smooth="yes"/>
			<point x="300" y="405"/>
			<point x="256" y="450"/>
			<point x="200" y="450" type="curve" smooth="yes"/>
			<point x="145" y="450"/>
			<point x="100" y="405"/>
			<point x="100" y="350" type="curve" smooth="yes"/>
			<point x="100" y="295"/>
			<point x="145" y="250"/>
		</contour>
	</outline>
</glyph>
<glyph name="emdash.case" format="2">
	<advance width="900"/>
	<outline>
		<contour>
			<point x="800" y="410" type="line"/>
			<point x="100" y="410" type="line"/>
			<point x="100" y="290" type="line"/>
			<point x="800" y="290" type="line"/>
		</contour>
	</outline>
</glyph>
<glyph name="integral.ss01" format="2">
	<advance width="500"/>
	<outline>
		<contour>
			<point x="67" y="-72" type="line"/>
			<point x="168" y="-72"/>
			<point x="236" y="-17"/>
			<point x="257" y="83" type="curve" smooth="yes"/>
			<point x="362" y="591" type="line" smooth="yes"/>
			<point x="371" y="634"/>
			<point x="390" y="650"/>
			<point x="434" y="650" type="curve"/>
			<point x="434" y="770" type="line"/>
			<point x="333" y="770"/>
			<point x="265" y="715"/>
			<point x="244" y="615" type="curve" smooth="yes"/>
			<point x="139" y="107" type="line" smooth="yes"/>
			<point x="130" y="64"/>
			<point x="111" y="48"/>
			<point x="67" y="48" type="curve"/>
		</contour>
	</outline>
</glyph>
<glyph name="zero.ss01" format="2">
	<advance width="693"/>
	<outline>
		<contour>
			<point x="486" y="516" type="line"/>
			<point x="131" y="312" type="line"/>
			<point x="211" y="174" type="line"/>
			<point x="566" y="378" type="line"/>
		</contour>
		<component base="zero"/>
	</outline>
</glyph>
